<svg data-name="Icons/Instagram" xmlns="http://www.w3.org/2000/svg" width="34" height="35"><defs><clipPath id="a"><path data-name="Clip 2" d="M0 0h33.989v33.989H0z" transform="translate(0 .011)" fill="none"/></clipPath></defs><g data-name="Group 8"><g data-name="Group 3"><path data-name="Clip 2" d="M0 .068h33.989v33.989H0z" fill="none"/><g data-name="Group 3" clip-path="url(#a)" transform="translate(0 .057)"><path data-name="Fill 1" d="M16.995 34c-4.586 0-5.189-.02-7.007-.1a12.562 12.562 0 01-4.125-.789 8.334 8.334 0 01-3.01-1.961 8.321 8.321 0 01-1.96-3.01A12.539 12.539 0 01.1 24.011c-.08-1.816-.1-2.419-.1-7.005s.02-5.189.1-7.007a12.539 12.539 0 01.792-4.125 8.333 8.333 0 011.96-3.01A8.342 8.342 0 015.863.903 12.562 12.562 0 019.988.111c1.817-.08 2.421-.1 7.007-.1s5.189.02 7.005.1A12.562 12.562 0 0128.126.9a8.331 8.331 0 013.01 1.96 8.318 8.318 0 011.96 3.01 12.536 12.536 0 01.79 4.126c.083 1.817.1 2.421.1 7.007s-.02 5.189-.1 7.007a12.536 12.536 0 01-.79 4.126 8.7 8.7 0 01-4.97 4.971 12.562 12.562 0 01-4.126.791c-1.816.083-2.419.102-7.005.102zm0-30.928c-4.519 0-5.06.017-6.867.1a9.4 9.4 0 00-3.156.586 5.26 5.26 0 00-1.955 1.27 5.26 5.26 0 00-1.27 1.954 9.4 9.4 0 00-.586 3.156c-.082 1.807-.1 2.347-.1 6.867s.017 5.06.1 6.867a9.4 9.4 0 00.586 3.156 5.26 5.26 0 001.271 1.954 5.26 5.26 0 001.954 1.271 9.4 9.4 0 003.156.585c1.8.082 2.342.1 6.867.1s5.063-.017 6.867-.1a9.383 9.383 0 003.155-.585 5.622 5.622 0 003.226-3.225 9.4 9.4 0 00.585-3.156c.082-1.788.1-2.324.1-6.867s-.017-5.079-.1-6.867a9.4 9.4 0 00-.585-3.156 5.269 5.269 0 00-1.271-1.954 5.257 5.257 0 00-1.955-1.271 9.382 9.382 0 00-3.155-.586c-1.808-.081-2.348-.098-6.867-.098z" fill="#fff"/></g></g><path data-name="Fill 4" d="M16.995 25.789a8.727 8.727 0 118.726-8.726 8.737 8.737 0 01-8.726 8.726zm0-14.392a5.665 5.665 0 105.665 5.666 5.672 5.672 0 00-5.665-5.666z" fill="#fff"/><path data-name="Fill 6" d="M28.106 7.99a2.039 2.039 0 11-2.04-2.039 2.039 2.039 0 012.04 2.039" fill="#fff"/></g></svg>