<svg data-name="Icons/Twitter" xmlns="http://www.w3.org/2000/svg" width="35" height="28"><defs><clipPath id="a"><path data-name="Clip 2" d="M0 0h34.314v27.887H0z" fill="none"/></clipPath></defs><g data-name="Group 3"><path data-name="Clip 2" d="M0 0h34.314v27.887H0z" fill="none"/><g data-name="Group 3" clip-path="url(#a)"><path data-name="Fill 1" d="M10.792 27.887c12.949 0 20.03-10.728 20.03-20.03q0-.457-.02-.91A14.322 14.322 0 0034.314 3.3a14.056 14.056 0 01-4.043 1.11 7.064 7.064 0 003.1-3.894A14.106 14.106 0 0128.9 2.224a7.046 7.046 0 00-12 6.421A19.987 19.987 0 012.388 1.289a7.045 7.045 0 002.179 9.4 6.988 6.988 0 01-3.189-.881v.09a7.043 7.043 0 005.648 6.9 7.024 7.024 0 01-3.179.121 7.048 7.048 0 006.577 4.89 14.127 14.127 0 01-8.744 3.014A14.319 14.319 0 010 24.725a19.93 19.93 0 0010.792 3.162" fill="#fff"/></g></g></svg>