<svg data-name="Logos/White Manumit Logo" xmlns="http://www.w3.org/2000/svg" width="303" height="63"><defs><clipPath id="a"><path data-name="Clip 30" d="M0 0h47.89v37.028H0z" transform="translate(0 .948)" fill="none"/></clipPath></defs><g data-name="Group 44"><path data-name="Fill 1" d="M70.471 62.627a7.6 7.6 0 01-5.023-1.792 6.423 6.423 0 01-2.189-4.994 6.471 6.471 0 012.188-5.078 7.658 7.658 0 015.024-1.736 7.721 7.721 0 015.052 1.736 6.489 6.489 0 012.205 5.078 6.4 6.4 0 01-2.211 4.992 7.672 7.672 0 01-5.046 1.794zm0-10.63a3.393 3.393 0 00-2.49 1.017 3.992 3.992 0 00-1.015 2.827 3.946 3.946 0 001.015 2.812 3.411 3.411 0 002.489 1 3.439 3.439 0 002.509-1.006 3.935 3.935 0 001.018-2.806 3.972 3.972 0 00-1.025-2.821 3.42 3.42 0 00-2.501-1.025z" fill="#fff"/><path data-name="Fill 3" d="M161.875 62.627a7.6 7.6 0 01-5.023-1.792 6.423 6.423 0 01-2.189-4.994 6.471 6.471 0 012.188-5.078 7.658 7.658 0 015.024-1.736 7.722 7.722 0 015.052 1.736 6.489 6.489 0 012.206 5.078 6.4 6.4 0 01-2.211 4.992 7.674 7.674 0 01-5.047 1.794zm0-10.63a3.392 3.392 0 00-2.489 1.017 3.993 3.993 0 00-1.015 2.827 3.947 3.947 0 001.015 2.812 3.41 3.41 0 002.489 1 3.441 3.441 0 002.509-1.006 3.934 3.934 0 001.018-2.806 3.971 3.971 0 00-1.026-2.821 3.421 3.421 0 00-2.501-1.025z" fill="#fff"/><path data-name="Fill 5" d="M249.609 54.151c-2.771-.45-3.7-.726-3.7-1.379 0-.573.377-1 1.785-1a10.147 10.147 0 013.933.936 1.454 1.454 0 01.725.61l.341.616.472-.268.167-.094-.537-4.312a1.543 1.543 0 01-1.009.356 28.323 28.323 0 00-4.18-.537c-3.025 0-5.202 1.763-5.202 4.063 0 1.974 1.176 3.309 4.18 3.81 2.786.465 4.012.668 4.012 1.654 0 .726-.559 1.038-1.952 1.038-2.67 0-4.643-1.263-4.956-2.75a1.93 1.93 0 00-1.338 1.937c0 1.836 1.879 3.8 5.849 3.8 4.092 0 5.8-2.06 5.8-4.505.043-1.982-1.1-3.433-4.4-3.977" fill="#fff"/><path data-name="Fill 7" d="M194.114 54.151c-2.771-.45-3.7-.726-3.7-1.379 0-.573.378-1 1.785-1a10.143 10.143 0 013.933.936 1.445 1.445 0 01.725.61l.334.616.48-.268.167-.094-.538-4.312a1.574 1.574 0 01-1 .32 28.323 28.323 0 00-4.181-.537c-3.026 0-5.203 1.763-5.203 4.063 0 1.974 1.168 3.309 4.179 3.81 2.787.464 4.013.667 4.013 1.654 0 .726-.558 1.038-1.952 1.038-2.67 0-4.644-1.263-4.956-2.751a1.929 1.929 0 00-1.32 1.974c0 1.836 1.872 3.8 5.848 3.8s5.805-2.06 5.805-4.505c.036-1.982-1.117-3.433-4.419-3.977" fill="#fff"/><path data-name="Fill 9" d="M223.886 58.65a1.058 1.058 0 01-.726.565 3.718 3.718 0 01-1 .131h-4.6v-2.329h.965a2.907 2.907 0 011.378.276.558.558 0 01.326.486v.544h.725v-4.985h-.725v.519a.557.557 0 01-.326.486 2.971 2.971 0 01-1.379.277h-.965v-2.334h4.419a5 5 0 011.277.145.637.637 0 01.449.465l.08.239.726-.232-.798-3.846a5.22 5.22 0 01-2.264.261h-8.845v.727h.348a.791.791 0 01.726.427 3.244 3.244 0 01.226 1.306v8.084a3.02 3.02 0 01-.275 1.363l-.058.095a.8.8 0 01-.653.232h-.314v.726h9.048a5.084 5.084 0 012.445.37l.726-4.252-.653-.334z" fill="#fff"/><path data-name="Fill 11" d="M131.073 58.65a1.08 1.08 0 01-.726.565 3.586 3.586 0 01-.994.131h-4.607v-2.329h.965a2.9 2.9 0 011.385.276.558.558 0 01.328.486v.544h.725v-4.985h-.725v.519a.557.557 0 01-.328.486 2.991 2.991 0 01-1.385.277h-.965v-2.334h4.412a5.137 5.137 0 011.284.145.649.649 0 01.449.465l.074.239.725-.232-.799-3.846a5.217 5.217 0 01-2.267.261h-8.9v.727h.342a.8.8 0 01.726.427 3.262 3.262 0 01.232 1.306v8.084a3.136 3.136 0 01-.275 1.363.384.384 0 01-.058.095.79.79 0 01-.646.232h-.321v.726h9.071a5.105 5.105 0 012.453.37l.762-4.252-.661-.334z" fill="#fff"/><path data-name="Fill 13" d="M117.251 58.65a1.082 1.082 0 01-.726.565 3.668 3.668 0 01-.994.131h-4.607v-2.329h.965a2.9 2.9 0 011.385.276.557.557 0 01.327.486v.544h.725v-4.985h-.725v.519a.556.556 0 01-.327.486 3.006 3.006 0 01-1.385.277h-.965v-2.334h4.447a5.137 5.137 0 011.284.145.626.626 0 01.444.465l.079.239.725-.232-.798-3.846a5.285 5.285 0 01-2.267.261h-8.9v.727h.341a.8.8 0 01.726.427 3.408 3.408 0 01.225 1.306v8.084a3.162 3.162 0 01-.268 1.363.42.42 0 01-.059.095.788.788 0 01-.645.232h-.32v.726h9.042a5.108 5.108 0 012.452.37l.725-4.252-.66-.334z" fill="#fff"/><path data-name="Fill 15" d="M176.321 62.308h-6v-.725h.272a.42.42 0 00.374-.228 10.141 10.141 0 00.56-1.226c.465-1.159 1.554-4.541 2.2-6.562v-.005l.377-1.167a3.53 3.53 0 00.2-1.959c-.071-.355-.314-.355-.528-.355h-.3v-.726h9.055v.726h-.3c-.222 0-.464.027-.537.355a3.484 3.484 0 00.2 1.959c.215.661 2.109 6.489 2.576 7.735a6.793 6.793 0 00.545 1.184l.072.116a.421.421 0 00.428.153h.217v.724h-6.333v-.725h.283a.6.6 0 00.558-.378 2.907 2.907 0 000-1.946h-4.745a2.914 2.914 0 000 1.975.6.6 0 00.541.349h.285v.725zm1.387-9.971l-1.451 4.354h3.135l-1.386-4.354z" fill="#fff"/><path data-name="Fill 17" d="M211.028 52.866l-.726-3.773a7.1 7.1 0 01-1.93.224h-5.892a7.144 7.144 0 01-1.937-.224l-.726 3.773.152.072.516.262.268-.53a.376.376 0 01.327-.261 7.7 7.7 0 011.654-.124h.82v7.583a3.012 3.012 0 01-.276 1.386.567.567 0 01-.493.327h-.516v.725h6.284v-.725h-.515a.559.559 0 01-.493-.327 3.012 3.012 0 01-.276-1.386v-7.583h.8a7.7 7.7 0 011.648.124.484.484 0 01.334.261l.261.53.523-.262.145-.072z" fill="#fff"/><path data-name="Fill 19" d="M149.606 62.589c-1.749 0-2.759-1.49-3.651-2.805-.691-1.018-1.343-1.98-2.249-2.188v2.265a2.842 2.842 0 00.319 1.451.666.666 0 00.533.261h.432v.723h-6.283v-.726h.486a.587.587 0 00.53-.336 3.018 3.018 0 00.269-1.378v-8.115a3.014 3.014 0 00-.262-1.335.725.725 0 00-.643-.388.733.733 0 00-.083 0h-.326v-.722h8.229a6.354 6.354 0 014.158 1.274 3.962 3.962 0 011.413 3.126 3.721 3.721 0 01-1.141 2.73 4.282 4.282 0 01-3.023 1.113c-.061 0-.124.007-.185.007s-.124 0-.185-.007a4.449 4.449 0 002.38.987h.017a1.107 1.107 0 00.962-.56 2.032 2.032 0 011.255 1.9 2.673 2.673 0 01-.717 1.913 3.028 3.028 0 01-2.235.81zm-5.936-10.304v2.976h3.178c1.267 0 1.909-.488 1.909-1.451 0-.984-.68-1.526-1.916-1.526z" fill="#fff"/><path data-name="Fill 21" d="M237.289 62.589c-1.754 0-2.767-1.492-3.66-2.807-.691-1.018-1.34-1.978-2.248-2.186v2.265a2.842 2.842 0 00.319 1.451.676.676 0 00.537.261h.43v.723h-6.278v-.726h.458a.576.576 0 00.587-.333 3.007 3.007 0 00.269-1.378v-8.118a3.014 3.014 0 00-.261-1.335.727.727 0 00-.726-.384h-.327v-.726h8.229a6.358 6.358 0 014.158 1.274 3.961 3.961 0 011.413 3.126 3.723 3.723 0 01-1.14 2.73 4.329 4.329 0 01-3.016 1.113c-.061.005-.124.008-.185.008s-.124 0-.185-.008a4.435 4.435 0 002.373.987h.015a1.128 1.128 0 00.971-.56 2.054 2.054 0 011.219 1.9 2.673 2.673 0 01-.717 1.913 3.028 3.028 0 01-2.235.81zm-5.9-10.304v2.976h3.178c1.248 0 1.908-.5 1.908-1.451 0-.984-.678-1.526-1.908-1.526h-3.178z" fill="#fff"/><path data-name="Fill 23" d="M90.403 49.064a5.081 5.081 0 01-2.264.262h-8.482v.725h.239a.9.9 0 01.791.421 2.984 2.984 0 01.246 1.292v8.113a3.047 3.047 0 01-.276 1.371.683.683 0 01-.682.334h-.318v.725h6.392v-.725h-.558a.67.67 0 01-.508-.233 3.409 3.409 0 01-.334-1.685 2.367 2.367 0 012.38-2.67c.849 0 1.386.391 1.386 1.037a1.721 1.721 0 001.842-1.589v-.064c0-1.262-1.037-2.278-2.9-2.278a3.088 3.088 0 00-2.716 1.524V52.3h4.049a3.258 3.258 0 011.451.189.511.511 0 01.291.319l.043.226.537-.11h.189z" fill="#fff"/><path data-name="Fill 25" d="M103.544 49.064a5.121 5.121 0 01-2.264.262h-8.49v.725h.247a.879.879 0 01.784.421 2.914 2.914 0 01.254 1.292v8.113a3.162 3.162 0 01-.276 1.372.683.683 0 01-.682.334h-.327v.725h6.393v-.725h-.551a.685.685 0 01-.516-.233 3.5 3.5 0 01-.326-1.686 2.365 2.365 0 012.373-2.67c.856 0 1.393.391 1.393 1.037a1.721 1.721 0 001.834-1.597v-.056c0-1.262-1.038-2.278-2.9-2.278a3.066 3.066 0 00-2.708 1.524V52.3h4.042a3.256 3.256 0 011.451.189.526.526 0 01.29.319l.044.226.538-.11h.18z" fill="#fff"/><path data-name="Fill 27" d="M59.195 56.661c0 1.545-.966 2.975-3.31 2.975a3.671 3.671 0 01-3.881-3.449 3.909 3.909 0 010-.433c0-2.322 1.451-3.715 3.9-3.715a6.127 6.127 0 013.49 1.009.722.722 0 01.312.427l.058.334.508-.08h.217l-.3-4.353a1.639 1.639 0 01-.936.238 27.332 27.332 0 00-3.44-.5c-4.049 0-7.524 2.439-7.524 6.669a6.9 6.9 0 006.9 6.9c.1 0 .193 0 .289-.005 3.919 0 5.646-2.062 5.646-4.086a1.85 1.85 0 00-1.767-1.93 1.477 1.477 0 00-.163 0" fill="#fff"/><g data-name="Group 31"><path data-name="Clip 30" d="M0 1.631h47.89v37.028H0z" fill="none"/><g data-name="Group 31" clip-path="url(#a)" transform="translate(0 .683)"><path data-name="Fill 29" d="M24.011 15.461L14.193.948H0v2.119h1.139a1.744 1.744 0 011.641.726 8.17 8.17 0 01.848 4.143v23.06a8.3 8.3 0 01-.812 3.976 1.575 1.575 0 01-1.365.9H0v2.1h17.879v-2.1h-1.451a1.572 1.572 0 01-1.386-.914 8.4 8.4 0 01-.791-3.94v-13.67l9.76 13.591 9.679-13.643v13.7a8.43 8.43 0 01-.79 3.933 1.57 1.57 0 01-1.394.943h-1.451v2.1H47.89v-2.1h-1.451a1.581 1.581 0 01-1.393-.924 8.423 8.423 0 01-.784-3.954V7.936a8.254 8.254 0 01.871-4.107 1.746 1.746 0 011.64-.725h1.117V.948H33.727z" fill="#fff"/></g></g><path data-name="Fill 32" d="M68.388 38.659h-17.03v-2.128h.646a1.2 1.2 0 001.19-.624 31.655 31.655 0 001.6-3.5c1.183-2.937 3.737-10.871 5.6-16.665.721-2.24 1.344-4.174 1.748-5.386a10.337 10.337 0 00.573-5.58c-.206-.906-.855-1.03-1.525-1.03h-.842V1.631h25.81V3.75h-.85c-.67 0-1.318.125-1.523 1.03a10.053 10.053 0 00.587 5.6c.059.182 5.947 18.263 7.35 22.051a21.611 21.611 0 001.546 3.374l.2.319a1.189 1.189 0 001.045.428h.632v2.1H77.058v-2.121h.879a1.673 1.673 0 001.566-1.067 8.314 8.314 0 000-5.536H65.964a8.258 8.258 0 00.066 5.623 1.684 1.684 0 001.538 1h.82v2.1zm3.911-28.509l-4.02 12.481h8.831L73.148 10.15h-.849z" fill="#fff"/><path data-name="Fill 34" d="M123.868 3.75h1.451a1.581 1.581 0 011.386.921 8.465 8.465 0 01.791 3.947v8.193l-14.73-15.18H98.588V3.75h1.451a1.581 1.581 0 011.386.921 8.374 8.374 0 01.791 3.947v23.061a8.391 8.391 0 01-.791 3.939 1.578 1.578 0 01-1.365.937h-1.451v2.1h17.879v-2.1h-1.451a1.568 1.568 0 01-1.386-.924 8.364 8.364 0 01-.791-3.933V14.642c9.847 8.851 14.657 14.547 14.657 19.148a3.955 3.955 0 01-.536 2.039 1.9 1.9 0 01-1.706.726h-1.387v2.1h17.88v-2.1h-1.451a1.571 1.571 0 01-1.386-.924 8.34 8.34 0 01-.791-3.933V8.618a8.366 8.366 0 01.791-3.939 1.578 1.578 0 011.386-.929h1.451V1.631h-17.9z" fill="#fff"/><path data-name="Fill 36" d="M247.903 3.75h1.451a1.591 1.591 0 011.394.921 8.5 8.5 0 01.791 3.947v23.061a8.439 8.439 0 01-.791 3.932 1.572 1.572 0 01-1.379.944h-1.451v2.1h17.871v-2.1h-1.451a1.6 1.6 0 01-1.393-.924 8.427 8.427 0 01-.784-3.933V8.618a8.474 8.474 0 01.784-3.947 1.6 1.6 0 011.393-.921h1.451V1.631h-17.886z" fill="#fff"/><path data-name="Fill 38" d="M300.053 1a20.678 20.678 0 01-5.5.631h-16.769A20.608 20.608 0 01272.283 1l-2.009 10.738.428.211 1.452.726.725-1.51a1.454 1.454 0 01.95-.726 23.3 23.3 0 014.7-.333h2.329v21.573a8.344 8.344 0 01-.777 3.932 1.582 1.582 0 01-1.356.944h-1.451v2.1h17.881v-2.1h-1.451a1.569 1.569 0 01-1.386-.922 8.352 8.352 0 01-.791-3.933V10.1h2.271a23.287 23.287 0 014.709.334 1.448 1.448 0 01.943.725l.726 1.51 1.451-.727.429-.21.007.007z" fill="#fff"/><path data-name="Fill 40" d="M218.966 16.144l-9.817-14.513h-14.193V3.75h1.147a1.75 1.75 0 011.639.726 8.251 8.251 0 01.864 4.106v23.1a8.342 8.342 0 01-.791 3.933 1.569 1.569 0 01-1.386.943h-1.451v2.1h17.878v-2.1h-1.451a1.574 1.574 0 01-1.385-.914 8.487 8.487 0 01-.791-3.94V18.031l9.737 13.59 9.68-13.642v13.7a8.347 8.347 0 01-.806 3.933 1.566 1.566 0 01-1.371.943h-1.451v2.1h17.879v-2.1h-1.452a1.574 1.574 0 01-1.389-.914 8.382 8.382 0 01-.791-3.94V8.619a8.156 8.156 0 01.871-4.107 1.731 1.731 0 011.633-.725h1.145V1.631h-14.232z" fill="#fff"/><path data-name="Fill 42" d="M171.969 3.75h1.052a1.963 1.963 0 011.7.914 8.883 8.883 0 01.791 4.005V23c0 4.55-2.431 8.04-7.408 8.04s-7.191-3.49-7.191-8.04V8.669a8.689 8.689 0 01.813-3.983 2.265 2.265 0 011.893-.936h1.089V1.631h-17.932V3.75h1.385a1.285 1.285 0 011.045.457l.074.1.086.13a8.223 8.223 0 011 4.23v14.28c0 10.209 7.569 16.551 17.771 16.551s17.879-6.4 18.089-16.551V8.669a7.881 7.881 0 011.081-4.354 1.456 1.456 0 011.226-.58h1.394V1.631h-17.958z" fill="#fff"/></g></svg>