<svg height="167" width="168" xmlns="http://www.w3.org/2000/svg"><clipPath id="a"><path d="M0 0h14.27v20.32H0z" transform="translate(.347 .68)"/></clipPath><path d="M4.041 97.436l-.208-.06-.1-.2-.427-.205-.277-.335-.615-.474-.441-.369-.83-.616-.356-.341.031-.126.047-.371-.113-.356-.052-.112.027-.125.008-.817-.151-.761-.059-.2.094-.332-.155-.354.03-.125.037-.492-.125-.478-.057-.158.028-.166.023-.654-.14-.639-.09-.521-.008-.531.025-.614-.131-.558L0 86.188l.1-.214v-.488l.833-.239.516-.168.791-.276.832-.239.521-.128.833-.238.274-.19.521-.088.471-.206.049.077-.121.46-.433 1.585.045.934.2.838-.08.456.18 1.981.158.392.063.688.529.442.342.172.154-.1.6-.094.48-.981-.188-.717.03-.611-.139-.64.066-.617-.095-.6-.161-.843-.014-.611.3-.312.335-.356.408-.443.361-.478.408-.446.4-.486.448-.447.569-.012.536.075.78.05.661.1.737-.065 1.132-.1.668-.269.6-.095.634-.22.48-.085.392.289.318.34.176.106.486.444.441.369.48.323.724.789v.939l.169.472.07.77-.018.694.139.64.015.611.084.481.066.727-.074.537.207.919.2 2.143-.052.407.07.319-.6.137-.754.232-.793.235-.674.224-.551.214-.712.227-.446.041-.434.162-.473.165-.33-.051.342-.724.1-.743.139-.706-.125-1.374-.122-.886.1-.254-.176-.6-.008-.976-.024-.642-.151-.312-.068-.32-.375-.535-.832-.173-.754.68-.01 1.224.032 1.262.143 1.129.058.6.076.851-.375.359-.212.346-.3.352-.368.442-.659.795-.51.7-.284-.014-.617-.067-.981-.034-.744-.094-.36.074-.857-.005-1.162.23-.551.213-.64.138-.627.261zM10 94.329l.086.074.043.038.071-.13.028-.166-.09-.073-.117.051-.083.008.1-.213-.172-.107-.217.305.223.225h.041zm.167-1.28l-.077.049.009.08.13.07.056.2.134.11.035-.044-.1-.235-.187-.229zm1.18-.473l-.08.007.023.243.213.1.032-.084-.167-.067-.021-.2zm5.918-.865l.38.17-.118.05-.188.18v.041l-.122.011.055.158.071-.129.068-.129.2-.058.075-.088.162-.016.177-.261.239-.062-.007-.081-.173-.107-.175.3-.262-.179-.471-.242-.112-.357-.054-.118-.08.008-.234.1-.082.009.1.024.075.123.184.228-.129.066-.032-.052-.037.044.02.033-.015.009h.02l.119.192-.239.063v.041l.213.1.361-.074zm-6.7-.229l-.035.187-.281.068-.16.014.011.085.335.093.4-.039.142-.215-.13-.072-.072.089-.082.007-.018-.2-.111-.013zm7-.859l-.111.131.092.113.107-.172.1-.213.093.113.122-.01.032-.163-.213-.1-.391-.25-.312-.3-.13-.039-.054-.108.024.1-.055-.017.056.023.041.174-.011.325-.231.144v.041l.125.029.136.151.219-.265.291.015.134.15.015.162zm-7.388-1l-.077.013.105.275.107.277.12-.011-.071-.32-.181-.228zm6.538-2.96l-.229.184.176.149.176.147-.024.164-.075.089.087.075.288.013.3.137.122-.011-.014-.161-.254-.1-.31-.258-.11-.314-.131-.112zm-5.19-.627l-.068.169.047.077.287.014.042.445.292.095.093.114.083-.008.005-.327-.118.012-.229-.306.013-.245-.238.022zm6.016.268l-.194.1-.157.056.09.113.262.179.269-.187.11-.131-.134-.111zm-3.106-.532l-.047.37.023.284.2-.02v-.04l-.093-.155.059-.25.024-.164zm2.506.22l-.241.064-.359.072.05.12.05.118.085.032.023-.207.2-.018.159-.055zm-1.969-.146l.164.027.027.281.056.2.124-.011.013-.286.1-.254-.095-.155.02-.246-.336-.093-.265.23-.173-.103-.017-.2.072-.086.17.066.107-.173-.3-.136-.072-.04.042.166-.309.191-.441.081-.22-.185-.046-.084.025-.166-.083-.034-.149.176-.31.151h-.041l-.08.007.124.031.044.037.016.161.209.061.028-.124.092.113.059.2-.037.044-.125-.028-.069.128.222.184.175.147.075-.087-.1-.2.238-.062.149.272-.115.091v.042l.234-.105.009-.367-.022-.243.08-.005.174.105.379.13.066.28.08-.008.029-.124zm1.35-.408l.093.154h.041l.021-.205-.017-.2-.2.019-.17-.07-.143.217.172.107.08-.008.123-.011zm-4.135-.644l-.09.376.221.182.209.062.169-.288-.112.039-.292-.1.037-.043.113-.092-.093-.115zm7.399-4.012l-.382-.175-.811-.36-.639-.13-.382-.218-.648-.049-.27-.121-.777-.026-1.024-.265-.465.1-.507-.193-.455.019-.432-.143-.66.031-.713-.182-.447-.021-.432-.143h-.615l-.483-.068-.551-.159-.569-.037-.487-.027-.635-.173-.814-.03-.873-.2-.779-.029-.793-.192-.648-.049-.637-.13-.787.054-.582.043-.711.105-.525-.077.086-.317.091-.355.078-.563.083-.89.5-3.333-.081-.3.18-.1.378.217.32.046.421.222.753.187.419.22.334-.034.35.131.445.061.481.067.338-.076.271.121.4.055.569.038.631.171.9.043.712.181.541-.004.529.032.477.107.511.153.563.078.816.031.846.118.625.211.465-.1.627.209.568.038.041-.281.089-.357.113-.516-.037-.621.137-.391-.018-.167.052-.362.026-.49.049-.36.116-.231-.041-.293.138-.391-.141-.757-.125-.878-.169-.554-.074-.338.1-.15.305.166.356.092.473.142.574.284.748.228.943.294.554.159.775.313.356.09.225.154.275.081.139.182-.027.2-.048.321-.119.269v.329l-.155.513.02.451-.149 1.375-.119.27.011.206-.078.563-.135.967-.094.971-.131.638-.074.236v.328l-.067.482-.1.4-.031.53-.068.482-.042.284-.083.318-.034.526-.148.471zm-8.658-4.076l-.113.229-.086.317.059.171.08.013-.015-.171.166-.305.154-.224-.242-.032zm.472-.14l-.016.121.184.149.093.217.082.013.009-.369-.351-.13zm.711-.106l-.1.11-.121.272.272.118.274.08.184-.139-.1-.137-.274-.079.107-.191.268-.166.108.014-.1-.095-.135-.182-.08-.01-.079.275-.149.184-.075-.051zm-2.964-.209l-.122.124.083.158.317.086-.077-.339-.141.144zm2.893-.457l-.086.03.047.253-.229.173-.059.115h.286l.139-.392zm6.6-2.072l-.184.137-.092.07.18.189v.328l.173.229.148-.184-.236-.075.2-.258-.052-.212-.059-.173zm-1.534.443l-.114.23-.035.241.162.022.176-.1-.091-.217zm.521-.5l.19.11.08.3.167-.019.112-.229-.262-.161.154-.225.121.017-.236-.12-.1-.138-.04-.005-.111.191-.264.127.059.171.127-.023zm.087-.93l-.05.074.219.2.264.159.048-.035-.175-.23zm-.247-.282h-.287l-.166.012-.013.08.225.155.127.265.166-.02-.068-.09-.017-.166-.059-.172h.328l.015-.037.145.059-.068-.093h-.063l.034-.084-.042.084h-.257zm3.491-4.063l-.342-.351-.629-.508-.327-.39-.267-.1-.4-.419-.85-.5-.895-.611-.97-.641-.645-.47-.364-.188-.637-.381-.484-.32-.781-.565-.666-.3-.266-.334-.4-.2-.961-.55-1.071-.725-.787-.437-.423-.253-.4-.328-.727-.371-.607-.454-.348-.223-.447-.306-.613-.108-.406-.072-.453-.173-.514-.025-.3-.118.2-.619.41-.713.063-.5.342-.653.242-.952.319-.484.073-.409.277-.371.041-.332.2-.4.231-.476.212-.659.19-.71.35-.561.239-.949.302-.669.118-.3.339.134.184.2.266.1.256.232.341.134.756.3.627.069.52.117 1.066.286 1.02.18.648.122.68.046.748.205.474.012.469.139.627.071.9.136.522.117.355.094h.348l.746.205 1.354.221.738.114.711.191.717.062.648.123.943.149.756.076 1.112-.035h.783l-.268.462-.3.756-.144.815-.541 1.053-.324.832-.073.408-.17.545-.347.56-.162.634-.69-.356-1.019-.4-.7-.229-.338-.132-.41-.072-.353-.095-.385-.02-.316-.08-.35.779-.471 1.21-.349.78-.028.293-.14.251-.028.293-.141.251.334.261.379.148.257.232.537.3.689.356.294.027.175.112.332.042.326.171.606.236-.22.786-.252.424-.03.3-.162.2-.112.393-.207.528-.2.4-.014.256-.229.479-.266.68-.183.363-.149.378-.027.294-.2.183.039.233-.156.069zm-2.007-4.792l-.285.061.068.158.284-.062.205.036.008-.129-.025-.053-.256-.012zm-2.5-3.766l-.127.213.257.231.176.112.143-.031-.084-.121-.037-.014-.229-.089-.023-.271-.076-.031zm-4.055-1.32l-.1.046-.068.06-.066.281.174.112.029-.077.044-.114-.06-.066.1-.136.027-.075zm5.493-.338l-.043.112.145.187.066-.06.008-.129.1-.046-.06-.068-.068.061-.15-.059zm-8.46-3.785l.008.09.3.118.521.336.26.23.2.036.684.485 1.111.609 1.074.719.623.418.227.086.334.262.613.328.477.229.135-.339.287-.628.34-.87.2-.62-.83-.106-1.1-.209-1.077-.251-1.138-.22-.482-.1-.577-.18-.664-.083-1.077-.163zm-1.051.46l-.132.341-.073.408-.005.129-.143.031-.234.04v.219l.2.036.115.263-.143.25.018.18-.164.2.061.066v.22l-.263.115.16.149.149.06.158-.069.09-.009.09-.227.116-.178-.189-.075-.143.032-.023-.053.05-.242.24-.168.308-.009.243.051.168.239.3.117.083-.1.071-.053-.053.023-.3-.12-.245-.272-.258-.014-.384-.017.067-.28.121-.084.1.083.022.052.014-.038.023-.166-.192-.074-.143.031.02-.166.256-.205-.132-.443.076-.191-.059.151-.052.023zm.487 2.326l-.428.094-.1.138.085.12.329-.177.355-.122.015-.039zm.828-.33l-.2.054.045.106.173.111.034.143.089-.008.012-.256zm-2.772-.6l.016.18.191.292-.031.295.281.067.233-.04-.122-.135-.153-.058-.1.045-.041-.019.142-.25.065-.279.038.015.1.082.2.036.142-.031-.1-.084-.1-.081-.271-.194-.323.267zm.994-.877l-.2.055-.149.16.021.051.276-.022.127-.213-.077-.03zm-.267-.324l.156.149.174.019-.025-.271.094-.354-.1-.084-.233.258-.382.2-.067.061.031.142.135-.122.158.149.061-.149zm15.113-.2l-.1.265.263.1.084-.1-.03-.14-.048-.1-.166-.022zm-.131-.225l.258.013.006-.127-.257-.014-.188-.079-.008-.092.059-.149-.122-.131-.24.172-.15.159-.045.113.252.14.119-.084.09-.008.008.091zm-3.306-.681l.128.225.083-.1-.032-.361-.17-.24-.037-.014-.027.293-.2.184-.045-.105.006-.128.15-.159-.042-.021-.112-.045-.225.131-.2-.036.023.051-.188-.073.25.14.157.15.063.067.09-.008-.037.2.144-.03.224-.131zm-9.219-1.507l.257.012.205.255.334.263.383-.2.06-.149-.317.139-.274-.2-.068-.157-.277-.065-.295-.027-.1.139zm-1.588.163l-.05.241.166.022.151.059.187-.144-.107-.175-.06-.065-.014.036-.069.061zm.661-.482l-.013.039.013.091.047.1-.037.2.316.081.139.1.09-.008-.095-.203.227-.129.006-.129-.227-.088-.135.121-.137-.1zm2.779-.309l-.15.16-.049.241.132.008.145-.03-.122-.135.149-.161zm-.909-.225l-.194.274.16.149.068.157.113-.174.144-.031.059-.151-.12-.135zm-1.187-.42l-.1.046.159.15.189.074.053-.023-.069-.157-.228-.09zm19.357-1.609l-.621-.247-.74-.434-.637-.158-.427-.309-.745-.288-.6-.281-.344-.148-.255-.132-.2-.143-.352-.205-.734-.229-.82-.392-.489-.154-.24-.223-.764-.4-1.177-.449-.623-.248-.639-.363-1.04-.5-.6-.136-.261-.19-.434-.164-.377-.171-.329-.238-.258.013-.353-.2-.574-.314-.621-.249-.641-.36-.72-.117-.467-.187-.6-.134-.687-.097.031-.182 3.231-4.474.508-.636.484.3.283.3.212.053.357.408.769.457.477.243.653.272.32.182.5.21.663.329.456.13.419.252.564.257.51.266.787.368 1.105.548.834.3.754.344.731.376.531.234.484.3.424.107.541.29.326.035.024-.032-.239-.223-.367-.464-.257-.337-.437-.365-.432-.512-.271-.246-.49-.5-.464-.536-.2-.142-.181-.233-.188-.085-.384-.579-.5-.56-.578-.517-.681-.792-.563-.607-.469-.389-.356-.408-.421-.454-.447-.422-.473-.593-.759-.545-.558-.4-.419-.252-.32-.182.441-.681.762-1.053.531-.668.205-.353.262-.363 1.3-1.811.112-.22.043-.127.279.1.162.468.5.559.355.757.381.374.359.408.363.464.293.361.328.237.1.272.279.1.342.5.644.565.679.791.512.47.516.673.8.829.565.607.355.408.284.3.431.511.727.726.365.464.523.526.793.774.39.431.274.247.334.44.563.608.414.4.289.359.324.385-.338.607-.308.428-.309.427-.534.667-.321.518-.29.192-.328.664-.541.61-.272.306-.361.639-.342.406-.133.253-.377.381-.09.335-.312.225-.172.377-.307.077zm-2.9-4.241l-.02.236-.052.211.088.015.087-.189.042-.268h-.146zm2.308-.84l-.167.23.127.243h-.2l-.068.3-.02.236.17-.029.063-.155.265-.159.264-.159-.041-.08-.18-.029-.187-.086.119-.164-.141-.153zm-1.877.252l-.137.05.069.25.051.139.113-.02.11-.221-.207-.2zm-9.681-3.238v.347l.094.217.105-.074-.08-.307-.115-.184.027-.179-.124.237-.169.1-.085.079-.043.029-.1.039-.066-.012.033.024.033-.012h.023l.058-.011.066-.061.245-.163.009-.017.1-.057zm.213-.3l-.024.032.108.128.074.105.089.1-.014.045-.038.077-.127.107.113-.018.052-.166.019-.038.015.015.039-.122-.052.1-.006-.005.01-.022-.127-.241zm-1.738-.5l-.058.009-.106.075-.059.157.055-.01.129-.109.251-.069.239-.126-.065-.049-.18-.028-.062-.043-.091.184-.1.13zm9.812-5.134l.05.068-.1.143-.242.126.156.064.37-.235.113-.019-.01-.057-.043-.006-.179-.029.012-.017-.058.009zm-1.39.05l-.093.131.146.006.149-.068.045.007.107-.04.005.022.025-.036-.027.01-.006-.034-.148.068-.045-.007-.157-.062zm-.661-1.578l.01.056.156.062.2.143.072-.1-.256-.134-.18-.029zm-.222-.661l-.013.088-.162.084-.04.123.2-.06.09-.125.127.032.033.023-.01-.056-.158-.065-.067-.047zm-.692-.122l.082.133.16-.086-.183-.234-.063.156v.029l-.032-.052-.105-.128.142.2zm15.325 5.384l-.033-.289-.262-.311-.283-.717-.53-.88-.685-.751-.334-.461-.365-.435-.367-.438-.4-.409-.545-.709-.349-.29-.3-.488-.711-.78-.6-.716-.281-.4-.393-.466-.355-.231-.274-.511-.735-.814-.367-.435-.365-.435-.392-.465-.365-.436-.367-.435-.336-.46-.393-.467-.631-.688-.761-.526-.6-.454-.271-.14.076-.224.182-.1.461-.335 4.881-4.103.772-.6.593-.554.652-.544.621-.523.492-.362.4.352.549.336.643.574.459.356.568.423.6.4.689.693.526.248.2.306-.8.247-.9.441-.76.482-.959.752-.945.898-.526.444-.65.548-.275.178.492.648.391.465.419.5.472.559.191.1.477-.506.513-.274.325-.432.752-.686.443-.479.342-.607.445-.479.447.472.7.951.732.871.34.4.387.522.244.165-.045.2-.385.112-.369.257-.258.005-.31.263-.541.241-.528.445-.5.418-.555.414-.468.45.416.5.445.528.275.139.274.514.346.346.15.243.43-.308.265-.381.449-.22.383-.428.317-.319.363-.2.414-.453.58-.382.191-.214.31-.26.44-.742.271-.495.289-.667.265-.064.373.695.271.514.369.752.481.763.419.814.367.752.465.616.064.266-.045.2-.209.068-.139.276-.326.117-.389.484-.4.339-.831.591-.72.66-.61.408-.511.59-.551.356-.133.219-.607.352-.569.585-.373.313-.244.151-.284.292-.611.409-.472.45-.26.322-.273.178-.174.042zm-.162-6.814l.022.088-.093.079-.045.2.108.065.05-.255-.021-.088.036-.083-.033.026zm3.946-.667l-.252.265v.374l.057.005.1-.193.161-.189.014-.171zm-6.934-3.451l.157.186.162.129.029-.026-.114-.327-.154-.112.079-.038-.14-.04-.023.018.084.061-.071.034-.269.121.08.093.179-.1zm-1.31-.171l-.033.026-.1.135-.176.042-.146.017v.057l.167.072.326-.115.322-.059-.047-.12-.14-.041-.17-.014zm-2.424-2.758l.093.049-.065-.265v-.022l.048.141.151-.074-.1-.182-.093.081-.005.028-.022-.06-.073-.15.09.23-.04.203-.079-.09v.059l.077.041-.056.047.088-.022-.01-.012zm17.768 4.876l-.163-.415-.16-.872-.2-.673-.127-.526-.287-.4-.217-.617-.543-.819-.07-.508-.238-.291-.234-.655-.451-.637-.32-.841-.4-.618-.234-.473-.035-.345-.254-.237v-.273l-.252-.236-.108-.49-.451-.818-.382-.584-.484-.981-.088-.455-.182-.271-.274-.455-.107-.31-.163-.237-.127-.253-.159-.328-.146-.2-.016-.218-.2-.218-.217-.618-.451-.456-.51-.654-.56-.673.674-.38 1.709-.849.253-.037.219-.2.326-.163.438-.216.363-.18.31-.018.308-.287 1.783-.885.343-.03.148-.163.291-.054.455-.361.562-.234.673-.388.635-.268.31-.108.273-.181.345-.126.256-.217.689.293.978.238.508.294.291.036.653.22.707.238-.018.327.18.363.088.545.127.436.2.582.217.618.289.31.269.817.526.782.362.636.578.8.526.6-.2.781-.347.852-.275 1-.257.762-.093.363.435.419.289.31.347.238.414.472.453.456.707.691.815.729.961.565.67.529.253.055v.09l-.116.053-.361.087-.329.255-.365.18-.526.308-.582.289-.637.27-.543.18-.365.27-.6.253-.874.525-.6.161-.108-.4-.308-.346-.182-.364-.252-.237-.2-.491-.526-.6-.4-.345-.465-.495-.489-.526-.562-.582-.452-.455-.146-.2h-.18l-.219.2-.328.071-.216.109.125.437.287.672.418.563.015.4.436.6.359.728.272.545.416.473.4.619.506.564-.562.325-.473.235-.619.308-.272.18-.6.161-.619.306-.491.381-.508.161-.509.344-.637.18-.216.2zm-2.585-11.047l-.054.163-.091.184.152-.286.029.2.038-.2.038-.083.016.01.055-.163-.07.151-.057-.043-.018-.218-.019.327-.009.017-.009-.053zm2.98-6.6l-.381.147-.8.4-.725.36-.385.14.234.654.4.528.051.291.255.6.252.51.4.526.037.255.181.274.2.4.216.528.655-.144.544-.361.383-.145.164-.126.253-.036.291-.326.292-.417.111-.6-.342-.782-.344-.6-.077-.419-.361-.546-.344-.6-.617-.421-.543-.091zm4.15 2.336l-.162.036-.146.162.053.013.164-.126.2.037.072-.037.184-.174.146-.253-.056-.109-.072-.055-.055-.018.017.035.055.109-.221.2-.055.255-.127.019v-.094zm-8.164-1.748l-.072.035.127.255.07.328.145-.073-.161-.327zm7.418-.352l.081.027-.017-.036.035-.018-.1.027-.027-.009-.127-.164-.219-.073.02.128.253.145.1-.027zm14.814 9.546l-.106-.1.107-.274-.046-.4.025-.835-.006-.789-.164-.753-.122-.554-.121-.566-.118-.556-.132-.6-.175-.786.02-.3-.148-.3-.189-.873-.321-.513-.427-.446-.32-.513-.379-.413-.49-.725-.357-.5-.456-.564-.513-.637-.473-.645-.586-.787-.377-.583-.427-.447-.3-.432-.537-.756-.392-.455-.372-.376-.271-.482-.516-.47-.44-.486-.209-.2-.02-.083h.207l.246-.013.617-.216 1.112-.243 3.013-.655.805-.135.236.7.317.512.022.286.19.292.205.37.545.8.757 1 .459.774.35.464.222.449.144.093.063-.1.053-.717.22-.713v-.581l.156-.822.2-.792.162-.784-.023-.868-.092-.81-.032-.533.15-.074.137.053L71.897.52h.582l.211-.171.634-.14.467-.142.112-.067.137.054-.262.515-.225.878-.349 1.074-.1.853-.183.5-.087.558-.174.536-.136.9-.318 1.232-.18.7-.048.55-.247.76-.084.767-.242.8-.135.528-.189 1.039-.171.743.134.8.159.548.121.555.122.554.122.763.163.173.012.621.112.515.228.864.438.86.4.871.165.378-.533.033-.42.175-.246.012-.387.126-.914.2-.531.032-.422.175-.473.1-.573.041-.309.108-.318.068-.456.184-.287.02zm1.342-13.297l-.16.409.347.256.071-.058.021-.088-.079-.187-.182.123-.1-.063.077-.223h.206l-.027-.119zm.392.082l.052.238.2.164.058.07.019-.178-.138-.17-.183-.124zm24.165 11.866l-.433-.11-.409-.024-.4-.063-.6-.137-1-.2-.653-.022-1.083-.139-.822-.255-.459.05-.063-.132.225-.374.064-.4.214-.3.208-.541.223-.622.181-.875.108-.93-.009-.7.17-.549.1-.394-.015-.414.131-.304.062-.4.086-.522.012-.573.192-.708.023-.654.094-.314.191-.919.112-.97.13-.555.057-.607.077-.728.183-.628.081-.482-.069-.339.2-.462-.014-.414.121-.228-.006-.741.148-.923-.086-.752-.061-.706.012-.327.207-.008 10.143 1.625.8.168.083.755.037.54.106.634-.064.646-.023.655.115.307.01.455-.058.607.046.747.057.42-.013.08-.095.068-.477-.365-.488-.283-.5-.2-.735-.283-.4-.063-.334.028-.261-.165-.214.047-.355-.1h-.494l-.823-.257-.659.018-.236-.078-.487-.038-.269-.124-.164.47-.048.815-.184.63-.015.614-.153.467.6.1.85.094.842.135.521.085.427-.1.948-.012.677-.142-.065.651-.09.563-.087.562-.085.521-.11.68-.177.342.062.38-.149.427-.033.448-.8-.376-.931-.355-.553-.13-.316-.093-.207.009-.586-.177-.77-.083-.427-.149-.14.347-.01.575-.2.709-.01.573-.187.668-.077.482-.067.934-.159.468.063.381-.16.756v.78l.03.827.1.672zm-.728-14.18l-.315.157-.049.319.045-.032.12-.229.224-.13-.025-.088zm-.318-1.859l-.007.287.31.378.027.011.006.035.008.207.026-.161v-.064l.089.038-.089-.169v-.218l.014.088.239.039-.04-.254-.167.014-.045.023.037-.23-.068.154.014.084-.119.063-.141-.146-.055-.173zm.8-.9l-.1.107-.023.12.023.127.038.007.075-.2.167-.013-.021-.125-.16-.026zm21.297 23.608l-.112-.046-.309-.214-.409-.076-.374-.152-.58-.191-.6-.243-.626-.3-.494-.288-.446-.091-.588-.281-.97-.305-.52-.342.228-.347.054-.46.153-.376.009-.347.235-.474.1-.791-.005-.527.054-.679.071-.715.064-.807.04-.641.055-.241-.122-.136-.292-.031-.272-.2-.224-.094-.246.386-.311.662-.143.685-.289.278-.162.723-.305.754-.23.572-.078.626-.2.709-.084.752-.62-.2-.488-.2-.639-.259-.319-.085-.518-.34-.639-.259-.611-.114-.459-.274-.593-.156-.552-.358-.3-.03.205-.4.547-.7.369-.595.312-.445.107-.481.319-.573.252-.948.332-.391.061-.369.335-.61.177-.76.409-.8.2-.707.2-.49.234-.256.01-.347.2-.181.011-.347.294-.406.311-.88.184-.671.412-1.016.279-.369.086-.316.154-.501.16-.286.069-.278.106-.264.138-.34.053-.239.151-.158.031-.292.319-.572.04-.641.158-.816.131-.867.73.251 1.77.716.2.166.291.031.342.139.449.182.379.152.217.219.422.039 1.844.745.255.235h.219l.234.183.573.1.547.266.732.251.625.3.285.16.317.083.324.175.33.047.239.709.473.892.119.572.162.242.271.635.292.687-.257.2-.151.375-.347.428-.246.383-.3.535-.319.573-.039.421-.431.745-.239.912-.234.692-.212.964-.1.791-.719.367-.865.305-.93.458-.74.313-.332.173-.026.6-.041.422.053.414-.077.627-.04.64-.049.988v1.093l.215 1.1.051.851.127.228-.069.06zm.452-12.388l.022.053.2.038.105.174.076.031.256.017.287-.06.045-.113-.009-.087-.022-.053-.015.039-.045.112-.3-.031-.225.127-.1-.083.066-.06-.137-.1h-.217zm-2.959-5.575l-.334.61-.13.649-.184.232-.279.587-.215.528-.13.647-.167.2-.084.316-.168.414-.252.512.543.392.634.17.361.189.205.038.193.167h.439l.5-.058.521-.315.358-.777.22-.654.266-.331.167-.632.227-.656-.1-.739-.291-.468-.359-.193-.828-.336-.752-.3-.361-.191zm-4.648 3.216l-.128.151.174-.105.087-.026v.018l.156-.064-.16.047-.007-.072.152-.157-.257.2-.021.005.036-.042-.158.068-.2.051.316-.076zm1.149-1.17l-.007.128-.047.113.045.1.122-.082.2-.052-.142-.189zm2.622-3.67l-.105.263-.2.272.149.06.139-.339.092-.225zm13.798 26.971l-.117-.184-.3-.067-.2-.286-.567-.255-.429-.309-.778-.656-.814-.534-.545-.492-.7-.35-.485-.443-.244-.075-.492-.5-.709-.407-.4-.282-.2-.2-.354-.2-.549-.491-.552-.349-.379-.169-.24-.222-.081-.161.274-.1.234-.33.624-.453.723-.731.558-.851.364-.438.33-.463.33-.462.3-.487.552-.7.2-.41.4-.415.58-.883.531-.766.317-.373.351-.495.14-.4.428-.391.607-.917.329-.462.328-.462.358-.5.332-.46.33-.462.363-.438.353-.5.512-.784.319-.868.294-.688.068-.3.236.019.141.152.436.364 5.188 3.706.769.6.686.439.693.5.661.472.471.387-.24.478-.19.613-.4.764-.23.534-.269.658-.237.679-.5.839-.108.572-.247.273-.438-.712-.65-.766-.658-.618-.967-.741-1.105-.69-.559-.4-.695-.5-.24-.222-.5.639-.354.495-.38.528-.425.595-.05.211.607.337.4.429.5.207.85.558.575.311.67.18.576.312-.344.551-.752.912-.66.924-.309.428-.41.506-.1.279h-.2l-.2-.346-.342-.292-.07-.25-.329-.236-.367-.463-.563-.4-.528-.377-.539-.434-.552-.345-.376.527-.4.563-.068.3-.428.392-.25.42-.2.208.406.339.433.16.328.383.507.264.389.226.284.3.543.288.514.467.254.133.332.235.826.242.545.141.718.113.128.241-.581.533-.43.392-.655.551-.619.655-.686.608-.636.544-.483.6-.239.127-.2.005zm-1.268-5l-.361.089.008.057.211.052.222.109.17-.028.071-.1zm-1.367-.18l-.117.165-.207.151.008.057.25-.069.166-.233zm-.115-3.328h-.205l-.037.123.26-.014.081-.043.088.014-.033-.023.026-.033-.081.043-.1-.071zm-.361-1.453l-.193.06-.119.164.02.114.25-.072.173-.174zm3.714-2.685l-.07.1.143.152-.143.2-.084.188.031.024.289-.194.069-.174.059.065.005-.146-.025-.017.015-.038-.027.029.008.005-.038.1-.052-.059zm-.414-1.446l-.056.01-.028.179.192.289.136.3.106-.077v-.146l-.027-.17-.033-.023-.158-.061-.084-.16-.051-.138zm2.638-2.684l-.127.082.108.128.149-.141-.1-.072h-.029l.052-.033.129-.109-.2.143h.018zm-.242.03l-.027.106.242-.129.009-.006-.211.012.069-.1-.055.01-.022.085-.06-.042.043.08zm7.324 26.962l-.2-.04-.076-.206-.279-.131-.125-.323-.5-.374-.355-.394-.613-.812-.68-.7-.427-.6-.606-.494-.366-.532-.223-.129-.369-.6-.6-.551-.325-.364-.158-.239-.3-.276-.426-.6-.463-.456-.33-.249-.188-.269-.052-.176.291-.041.3-.27.707-.3.865-.556.731-.707.451-.348.426-.379.422-.379.4-.409.693-.565.281-.358.475-.318.758-.738.7-.623.389-.3.457-.4.221-.359.506-.289.791-.76.423-.378.422-.378.457-.408.424-.378.424-.379.451-.347.453-.407.67-.652.5-.777.442-.609.131-.279.226.07.1.178.353.452 4.246 4.756.619.753.573.579.568.636.539.606.377.482-.34.41-.322.558-.556.66-.342.469-.407.58-.381.611-.672.71-.231.534-.3.212-.271-.792-.469-.888-.5-.749-.783-.935-.925-.915-.459-.515-.569-.635-.187-.27-.632.51-.455.405-.484.434-.544.488-.1.2.522.46.287.5.444.311.707.732.494.429.614.322.494.431-.457.464-.933.724-.848.757-.394.353-.51.4-.16.251-.2-.041-.122-.38-.271-.359-.014-.259-.27-.3-.26-.532-.456-.518-.433-.485-.429-.541-.464-.458-.484.433-.514.459-.131.28-.507.29-.338.353-.24.16.322.42.389.251.236.445.438.37.327.307.211.357.467.4.4.569.219.185.27.3.755.417.5.257.676.269.071.263-.684.392-.506.289-.74.389-.748.5-.8.445-.741.39-.6.483-.261.072zm-.34-5.2l-.374.007v.059l.2.1.191.157.175.009.09-.081-.274-.246zm-1.3-.476l-.15.134-.237.1v.057l.262-.015.209-.189-.08-.09zm.589-4.771l-.2.018-.153.135-.006.115.258-.014.209-.133-.1-.122zm4.211-1.8l-.09.081.1.179-.181.162-.125.165.029.032.322-.126.114-.152.043.077.037-.141-.02-.022.024-.035-.032.026.008.009-.058.084-.037-.068zm-.146-1.5l-.064.168.123.324.07.319.117-.05.037-.142.01-.172-.027-.031-.137-.094-.048-.181-.019-.145h-.059zm3.205-2.038h.013l-.143.053.078.149.178-.106-.082-.09-.024-.007.063-.023.149-.076-.226.1-.209-.036.09-.081h-.059l-.038.077-.05-.054.025.087.015-.013-.048.1.261-.071.012-.005zm9.388 27.763a.576.576 0 01-.283-.077c-.213-.076-.433-.153-.654-.223s-.456-.155-.674-.237a.564.564 0 00-.31-.108h-.05a.513.513 0 01-.37-.322.668.668 0 00-.192-.314 1.428 1.428 0 01-.084-.1.447.447 0 00-.085-.407 1.151 1.151 0 01-.059-.107c-.044-.105-.086-.193-.128-.285l-.105-.231a1.02 1.02 0 00-.275-.41.5.5 0 01-.182-.5.14.14 0 00-.01-.123v-.005c-.32-.4-.07-.78.13-1.084a.239.239 0 00.044-.2.239.239 0 01.042-.2c.05-.046.213-.206.2-.356a1.187 1.187 0 01.129-.444 1.774 1.774 0 00.111-.289.024.024 0 010-.02c.011-.03.078-.06.132-.084a.208.208 0 01.088-.015h.08a.22.22 0 00.089-.011.293.293 0 00.095-.087.3.3 0 01.1-.088.773.773 0 01.155-.048.808.808 0 00.15-.048.708.708 0 00.387-.132.941.941 0 01.74-.334h.014a.705.705 0 00.506-.236.547.547 0 01.408-.275.717.717 0 01.445.2l.03.017a.374.374 0 00.2.08.29.29 0 00.12-.03 5.14 5.14 0 00.912.377c.2.069.41.139.609.226a.192.192 0 01.1.084.059.059 0 01-.001.046.5.5 0 00.153.333.409.409 0 01.134.3.741.741 0 00.131.485 1.188 1.188 0 01.113.252l.078.172c.075.165.149.329.222.494l.267.587.052.115a.37.37 0 01.006.309 7.262 7.262 0 01-.386 1.019c-.088.2-.178.408-.254.611l-.006.034a2.281 2.281 0 01-.1.416.091.091 0 01-.041.108l-.07.032-.081.033a.25.25 0 00-.122-.036.335.335 0 00-.176.07.83.83 0 01-.105.059 21.274 21.274 0 00-2.072.941.72.72 0 01-.297.066zm.532-2.9a.217.217 0 00.073.012.227.227 0 01.072.012.17.17 0 00.059.013c.056 0 .074-.05.106-.132a.059.059 0 010-.046.05.05 0 000-.045.343.343 0 01-.081.014.311.311 0 00-.083.015l-.038.018-.086.039-.054.024a.055.055 0 00-.03.037.053.053 0 01-.024.033h.015a.072.072 0 01.023.006.09.09 0 00.029.007.045.045 0 00.018 0zm-.92-.184a.221.221 0 00-.093.019c-.036.017-.058.074-.077.124a.233.233 0 01.046.024.2.2 0 00.116.038l.221-.1a.815.815 0 01.169-.121h-.082a.4.4 0 00-.171.029h-.066a.204.204 0 00-.063-.009zm.208-.843a.2.2 0 01.036.044 1.937 1.937 0 00.026.34 2.63 2.63 0 01.02-.109c.013-.067.02-.1.007-.126a.862.862 0 00-.053-.105.593.593 0 01.012-.1l.008-.006a.218.218 0 01.088-.028c.04 0 .072.027.1.083.007.018.027.02.088.026h.014v-.026c0-.028-.006-.058-.042-.073a.417.417 0 00-.1-.13l-.025.01a.16.16 0 00-.121.142.357.357 0 01-.044.022l-.006.036a.1.1 0 00-.044-.014c-.042.019-.091.04-.107.081a.124.124 0 00.012.1l.012.01c.02.017.035.03.048.03s.042-.05.066-.2zm.349.032l.019.037a.2.2 0 01.07.057.192.192 0 00.071.057c.029-.013.067-.029.065-.05s-.07-.059-.214-.1l.063-.006c.092.012.192.029.306.054a.242.242 0 00-.132-.065.065.065 0 00-.028.006.125.125 0 00-.042-.006.493.493 0 00-.075.008h-.028l-.079.003a.083.083 0 000 .013zm-.017 29.607l-.4-.28-.326-.328-.176-.1-.5-.429-.452-.356-.486-.31-.746-.771-.031-.936-.18-.469-.087-.766v-.694l-.161-.64-.033-.61-.1-.479-.084-.726.058-.539-.232-.912-.254-2.137.034-.413-.08-.318.6-.153.744-.252.789-.257.663-.243.547-.23.706-.247.444-.053.429-.174.471-.178.332.041-.325.735-.074.744-.126.711.165 1.37.146.882-.088.261.192.591.035.977.037.649.158.308.08.318.39.526.835.146.734-.7-.023-1.228-.067-1.26-.177-1.127-.071-.6-.1-.846.365-.37.2-.352.289-.364.354-.451.639-.817.486-.708.287.008.621.049.983.006.743.075.359-.085.855-.019 1.156-.262.544-.229.636-.157.621-.278.216.057.1.19.43.2.286.334.627.457.451.356.847.594.366.324-.026.124-.037.373.123.353.055.117-.022.121.015.817.172.755.063.2-.079.336.163.349-.026.127-.022.493.138.473.059.157-.022.167v.653l.157.635.1.52.023.529-.008.614.147.555.058.157-.1.215.018.49-.825.261-.51.184-.785.3-.826.263-.516.143-.826.263-.262.194-.519.1-.465.22-.05-.077.107-.463.384-1.6-.072-.932-.22-.832.067-.457-.238-1.977-.17-.391-.082-.684-.541-.427-.347-.164-.151.1-.6.112-.453 1 .205.71-.008.616.157.635-.049.62.111.6.185.837.031.609-.289.321-.324.365-.394.456-.352.491-.4.455-.39.5-.438.461-.568.028-.533-.065-.778-.03-.665-.087-.725.086-1.132.139-.662.283-.6.111-.625.238-.477.1zm1.9-2.925l-.1.175.3.128.074.037-.048-.163.305-.2.437-.092.227.176.05.076-.021.166.086.031.14-.178.309-.161.122-.013-.125-.026-.045-.037-.019-.162-.213-.056-.026.125-.093-.111-.068-.2.036-.046.125.025.069-.13-.227-.178-.181-.137-.071.09.1.193-.237.068-.154-.268.112-.094v-.04l-.233.109v.368l.029.241-.08.01-.175-.1-.384-.117-.071-.279-.086.008-.02.131-.167-.021-.033-.283-.065-.2-.119.014-.01.288-.089.256.1.151-.01.247.336.082.256-.234.176.1.025.2-.07.091zm2.246-.023l.3.086-.038.047-.111.094.1.111.166.022.077-.376-.225-.178-.211-.057-.161.293.107-.041zm-3.672.07l.172.061.138-.221-.176-.1-.08.011-.121.014-.1-.152-.043.009-.015.205.023.2.2-.023zm.4-.825l-.122.015.068.238.076.059-.021.057.092.071v-.041h.039l-.106-.082.041-.114-.062-.2zm-1.42.1l.013.1v-.041l.04-.005-.01-.08-.038.021-.018-.048-.062-.2-.158.06-.057.211.133.068.15-.083zm2.831-.553l-.2.023v.041l.1.151-.052.251-.02.167.164.021.037-.372zm1.292.215l-.025.124.14.149.17.061-.023-.2-.262-.131zm-3.407-.126l-.016.205-.2.025-.154.059-.026.128.235-.07.357-.083-.055-.117-.054-.117-.084-.03zm4.567.192v.039l.035-.044.2-.025.21.057.063-.17-.049-.077-.289-.005-.053-.444-.3-.087-.09-.113-.082.009v.328l-.044.005h.04l.005.04v-.041l.116-.014.24.3-.007.246-.046.006.045-.005zm-5.589-.52l-.261.194-.106.137.133.105.248.013.191-.105.158-.059-.1-.112-.268-.173zm.1-.871l-.121.015.019.161.256.091.315.249.121.313.134.106.223-.19-.183-.142-.179-.142.022-.166.073-.09-.092-.071-.287-.007-.3-.128zm-1.336-2.295l.053.076h.037l-.024.118.135.106.106-.136-.05-.077-.167-.012v-.008l.283-.034.244-.028-.324.038-.292-.046zm.822-.67l-.123.014-.019.161.214.1.4.239.32.288.131.035.051.107-.027-.1.058.015-.059-.021-.045-.17v-.328l.226-.15v-.04l-.125-.026-.146-.149-.213.27-.286-.005-.141-.148-.019-.16.085.031.106-.136-.094-.111-.1.176-.1.215zm7.547.2l-.122.013.08.319.19.223.08-.009-.115-.271-.113-.274zm-7.637-1.294l.266.174.477.227.124.353.053.115.083-.009.23-.11.08-.011-.1-.019-.08-.122-.191-.222.128-.069.034.051.035-.046-.019-.03.017-.013h-.02l-.124-.189.234-.069v-.04l-.215-.1-.359.083-.385-.157.115-.057.178-.171v-.041l.121-.013-.062-.162-.067.131-.064.13-.2.063-.069.092-.162.02-.174.265-.236.069.008.081.176.1.168-.305zm7.349.005l-.016.1.32-.038.234-.109-.011-.089.114-.082-.122.015.008.067-.226.163-.3-.024zm-.136-.211l.024.2.112.009.03-.189.276-.076.162-.018-.011-.081-.336-.082-.4.049-.135.22.13.068.072-.092.078-.01zm-.84-1.207l-.029.082.172.06.022.2.083-.01-.031-.237-.217-.1zm1.067-.659l-.035.044.109.233.19.223.078-.051-.013-.08-.129-.066-.064-.2zm.461-.588l-.1.215.176.1.207-.311-.229-.217h-.039l-.082.009-.09-.07-.046-.036-.068.132-.019.165.089.072.116-.056.078-.01zm-4.846 26.811l-.309-.156-.358-.081-.476-.135-.581-.268-.757-.21-.951-.269-.555-.143-.785-.291-.358-.081-.229-.148-.277-.071-.145-.179.022-.2.038-.326.111-.273v-.327l.129-.515-.028-.454.113-1.373.115-.277-.021-.206.06-.566.11-.968.066-.973.112-.641.068-.24-.006-.329.053-.485.085-.4.02-.528.053-.481.031-.283.076-.318.018-.529.133-.476.39.165.82.335.644.112.388.209.65.031.275.112h.776l1.035.238.461-.112.512.178.453-.031.435.13.66-.049.717.161.45.009.433.129.616-.014.485.054.555.143.57.023.49.013.637.152.809.012.879.179.778.005.8.168.651.032.643.111.786-.075.576-.06.709-.125.525.058-.076.319-.08.358-.063.565-.059.893-.41 3.346.089.3-.176.1-.391-.208-.321-.037-.428-.209-.751-.167-.428-.209-.331.044-.354-.122-.445-.048-.484-.054-.336.086-.274-.113-.4-.045-.571-.022-.637-.153-.9-.016-.72-.161-.533.023-.531-.018-.477-.094-.518-.138-.561-.064-.816-.007-.848-.1-.636-.188-.464.112-.633-.191-.571-.022-.029.283-.084.358-.1.521.053.617-.125.394.022.167-.041.363-.011.489-.041.364-.106.233.049.292-.125.393.162.754.148.874.185.552.085.336-.1.152zm-2.333-4.927l-.031.084.038-.086h.256l.289-.011.166-.023.01-.081-.229-.148-.134-.261-.166.023.07.092.022.165.061.173h-.326l-.014.038-.148-.056.072.09h.063zm-.436-.694l-.043.036.178.224.31.156.043-.076-.219-.189zm-.05-.292l.233.106.108.135h.041l.1-.193.26-.135-.062-.171-.127.028-.192-.1-.09-.3-.167.023-.109.234.27.152-.143.234zm-.562-1.206l-.144.188.238.068-.194.263.058.21.063.17.077.049.18-.144.09-.072-.186-.183v-.328zm1.6-.028l-.175.1.1.215.1.175.107-.234.027-.24zm5.352-1.858l-.287.005-.127.4.1.174.087-.031-.051-.253.226-.179.055-.116zm-1.012.052l.1.091.141.179.08.01.073-.279.142-.188.077.05.094-.11.112-.273-.274-.112-.279-.075-.178.144.107.135.278.071-.1.193-.266.175zm3.7-.139l.082.148.014-.122.124-.027-.216-.2.016.179-.021.022-.087-.157-.319-.076.085.336.14-.149.063.171.117-.125zm-2.735-.613v.368l.355.121.014-.122-.191-.143-.1-.215-.082-.009zm.861-.4l.023.167-.157.309-.149.23.244.026.107-.232.076-.319-.063-.17zm3.872 29.22l-.341-.124-.19-.2-.267-.1-.265-.224-.342-.124-.765-.276-.627-.052-.527-.1-1.072-.257-1.022-.153-.653-.1-.683-.029-.752-.184h-.477l-.473-.127-.626-.054-.91-.111-.524-.1-.357-.086-.347.005-.754-.185-1.355-.185-.744-.094-.715-.172-.718-.041-.653-.105-.945-.125-.758-.057-1.107.076-.785.022.255-.471.275-.765.122-.821.515-1.066.3-.842.063-.409.154-.549.332-.569.145-.64.7.337 1.029.371.7.209.344.123.41.061.358.086.383.009.319.072.328-.789.439-1.223.329-.781.019-.3.135-.254.017-.3.139-.246-.344-.252-.38-.138-.264-.225-.547-.285-.7-.337-.293-.022-.182-.101-.334-.035-.33-.161-.61-.221.2-.792.239-.43.021-.294.159-.2.1-.4.194-.534.189-.408.005-.257.217-.482.25-.687.174-.368.138-.382.02-.3.2-.189-.05-.226.157-.074.351.342.645.491.338.38.267.1.414.407.862.481.91.588.988.615.658.451.366.175.647.363.494.309.8.544.674.286.275.315.409.189.975.523 1.09.694.8.418.431.241.4.318.736.35.619.44.356.213.456.289.613.091.41.061.459.165.514.011.3.112-.181.625-.39.724-.05.5-.322.661-.217.959-.306.495-.063.408-.265.379-.034.334-.187.408-.217.481-.2.665-.172.714-.334.571-.215.958-.285.674-.11.305zm-2.4-3.152l-.053.025.075.155.228.083.106-.049-.164-.145zm-1-.7l-.105.176-.143.035-.053.153.125.132.227.083.187-.279-.164-.145-.074-.156zm.94.035l-.067.061.068.285.284.059.013-.04-.173-.234zm-1.746-.067l-.143.034.127.131-.145.164.1.081.148-.166.041-.244zm2.38-.138l.137.092.192.07.013-.039-.01-.091-.05-.1.031-.205-.318-.071-.14-.094-.09.011.1.209-.221.135v.131l.231.082.131-.125zm-1.533-.421l.278.187.074.155.281.058.3.02.093-.139-.09.009h-.258l-.213-.25-.339-.252-.377.21-.054.152.309-.146zm2.24-.229l-.183.149.112.169.061.064.013-.037.067-.062.205.03.045-.24-.168-.019-.153-.053zm-10.7-.959l-.078.1.043.36.175.237.038.013.02-.3.2-.187.05.1-.005.129-.145.165.039.013.114.041.221-.137.205.031-.027-.053.193.07-.254-.135-.174-.135-.062-.066-.09.013.029-.205-.141.035-.22.135-.139-.221zm-3.445-.377v.13l.257.006.191.068.011.09-.056.153.125.13.238-.174.144-.163.041-.114-.266-.137-.117.086-.09.012-.009-.091-.219.008zm6.924-3.9l-.122.345-.273.635-.316.879-.18.624.833.086 1.1.18 1.088.218 1.138.193.485.088.589.168.666.067 1.076.13.459.165-.012-.092-.305-.108-.533-.322-.264-.224-.205-.031-.7-.465-1.13-.579-1.088-.694-.632-.4-.229-.083-.342-.252-.621-.31-.484-.218zm-6.983 3.319l-.077.1.032.142.049.1.167.016.1-.267-.27-.1zm14.949-.407l.032.27-.086.358.1.079.222-.265.379-.209.065-.063-.035-.142-.131.125-.164-.145-.054.153-.164-.145-.166-.017zm-.388.119l-.005.256.121-.345.063-.409v-.129l.143-.035.232-.046-.007-.219-.205-.031-.122-.26.135-.253-.023-.181.158-.2-.062-.066-.006-.219.259-.122-.164-.145-.152-.055-.157.074-.09.01-.082.23-.108.175.19.07.144-.036.023.052-.043.243-.234.177-.309.018-.244-.042-.175-.236-.307-.111-.077.1-.067.062.051-.023.306.109.252.262.256.006.385.011-.057.28-.114.086-.1-.079-.024-.053-.013.039-.017.166.192.069.143-.034-.021.166-.247.212.145.439-.014.038.051-.023zm.758-.547l-.272.033-.121.215.077.027.194-.059.144-.164-.023-.052zm-.174-.839l-.143.034.1.081.1.077.28.187.314-.274.177.107-.022-.179-.2-.289.02-.294-.282-.059-.23.047.123.131.152.055.105-.05.038.014-.133.256-.058.281-.04-.014-.1-.081-.205-.029zm-2.026-.728l-.089.01-.006.257.165.146.193-.06-.049-.1-.177-.107zm1.317-.3l-.326.185-.35.133-.013.038.257.005.427-.105.094-.139-.088-.117zm-.716-.042l-.27.031.033.142-.118.087.178.108.145-.165.031-.2zm-8.876-.649l-.064.063v.129l-.106.049.066.065.064-.062.152.054.04-.114-.149-.184zm5.575-.5l.06.064-.092.14-.027.076.074.028.105-.049.067-.065.058-.281-.178-.1-.026.075-.057.152.015-.036zm-4.4-1.453l-.142.035.086.118.039.013.231.082.031.271.076.029.121-.217-.266-.224zm-2.55-3.332v.129l.026.051.255.005.286-.069-.073-.157-.285.07-.2-.03zm-.789 36.465l-.281-.093-.175-.464-.512-.545-.374-.747-.393-.363-.367-.4-.379-.455-.3-.352-.335-.228-.113-.273-.279-.093-.356-.488-.658-.546-.7-.773-.525-.455-.535-.66-.825-.806-.581-.592-.367-.4-.291-.3-.445-.5-.749-.693-.38-.455-.536-.511-.815-.752-.4-.42-.283-.236-.346-.432-.58-.591-.423-.391-.3-.352-.337-.374.322-.617.3-.436.3-.436.512-.683.308-.526.284-.2.31-.673.526-.626.261-.312.34-.651.337-.412.12-.258.365-.392.08-.338.309-.232.16-.381.305-.087.629.23.75.412.64.142.438.3.752.266.6.265.35.138.257.126.2.137.359.194.743.212.829.368.494.139.248.216.773.38 1.19.418.627.23.653.344 1.053.472.607.12.268.183.439.15.379.161.337.229.258-.021.363.189.584.3.626.231.648.345.724.1.471.174.607.119.687.072-.022.179-3.109 4.566-.489.648-.494-.286-.29-.3-.212-.046-.37-.4-.783-.435-.482-.23-.662-.255-.326-.171-.506-.2-.672-.311-.459-.117-.427-.239-.571-.243-.516-.252-.8-.346-1.12-.503-.842-.28-.762-.321-.742-.356-.539-.22-.491-.286-.427-.095-.549-.275-.326-.026-.022.033.246.216.377.454.268.329.446.354.446.5.28.239.5.489.479.523.2.137.188.229.191.079.4.567.512.546.594.5.7.77.578.591.481.377.369.4.433.444.459.41.491.579.771.526.57.388.427.241.324.172-.422.694-.72 1.072-.517.682-.193.359-.252.369-1.256 1.846-.1.225zm-1.61-6.008l-.158.088.189.229.058-.158v-.03l.035.052.114.124-.15-.194v.018l-.086-.13zm-.675-.018l.066.045.013-.089.159-.09.033-.122-.19.066-.087.127-.127-.028-.034-.022.008.056.158.058zm-2.335-2.125l.068.045-.052-.069.1-.144.24-.134-.158-.058-.364.245-.111.021.01.057.044.006.179.025-.011.016.056-.01zm1.1-.069l.007.033.147-.072.042.006.159.058.093-.135h-.148l-.147.072-.048-.007-.106.045v-.023l-.021.033.024-.01zm8.856-5.534l-.056.008-.127.113-.246.076-.238.132.066.046.18.024.062.042-.017.037.022-.032.032.021-.032-.022h-.006l.084-.191.087-.127-.029.118.056-.011.1-.078zm-2.233-.581l.005.006-.009.033.131.237.137.092.021-.033-.113-.125-.076-.1-.091-.1.014-.052-.021.044-.015-.017-.035.122.049-.1zm-.656.135l.134.091.065.045-.023.034.023-.033.033.023-.034-.023.068-.1-.2-.138-.069.1-.032-.022.032.022-.023.034.024-.033zm1.013-.632l-.1.078.088.3.123.182-.011-.345zm.572.242l-.057.01-.062.062-.247.171-.011.023.172-.11.085-.085.04-.028.1-.041.069.009-.03-.021-.031.012zm-11.802-3.368l-.17.032-.059.157-.257.169-.263.166.045.079.18.024.192.081-.115.167.144.149.16-.235-.127-.241.2-.009.058-.3zm1.573.285l-.112.022-.1.223.211.194.137-.056-.079-.248zm.38-.628l-.083.192-.04.27h.149l.014-.237.048-.213zm-6.652 29.745l-.412-.34-.559-.32-.656-.556-.469-.344-.58-.408-.61-.382-.709-.674-.531-.232-.213-.3.793-.269.889-.465.75-.5.937-.778.916-.924.518-.459.634-.568.272-.184-.511-.634-.4-.455-.432-.485-.486-.546-.194-.1-.463.52-.506.286-.313.442-.733.7-.429.493-.327.613-.432.493-.461-.459-.726-.932-.756-.849-.348-.394-.4-.513-.252-.158.04-.2.382-.122.359-.264.257-.013.305-.27.533-.257.516-.46.487-.431.541-.427.459-.464-.432-.486-.457-.515-.279-.132-.289-.5-.356-.345-.156-.24-.422.321-.255.39-.442.229-.371.437-.308.328-.358.21-.4.465-.568.4-.186.22-.3.27-.416.752-.262.5-.269.675-.262.071-.391-.684-.287-.507-.394-.737-.5-.747-.443-.8-.39-.742-.483-.611-.07-.26.041-.2.207-.075.13-.281.322-.122.375-.5.393-.349.815-.613.7-.678.6-.426.494-.6.539-.373.13-.223.6-.369.553-.6.363-.323.238-.157.275-.3.6-.425.461-.463.247-.33.272-.186.174-.047.04.291.27.3.3.707.553.867.708.735.346.452.379.426.375.422.409.4.563.693.36.281.314.478.732.762.623.7.293.39.406.456.359.221.287.506.76.792.377.426.377.425.4.455.381.425.377.425.347.453.406.455.65.67.776.5.606.438.282.132-.071.226-.178.1-.453.347-4.758 4.244-.754.616-.58.572-.636.567-.608.538-.48.375zm2.7-8.358l.021.059.077.149-.1-.225.037-.209.082.09v-.058l-.078-.039.053-.049-.087.024.013.014-.1-.049.07.264v.011zm-1.162-2.8l.109.121.178-.106-.17-.067-.147.057-.174.033v-.022l-.03.027.029-.005v.035l.176-.068.029-.006zm-2.621-.06l.035.024-.018-.028-.008.007-.086-.059.069-.037.27-.127-.084-.091-.178.1-.16-.182-.166-.124-.032.027.125.323.156.106-.077.042.14.038.023-.02zm1.586-.432l-.322.125-.322.068.05.117.141.039.174.009.029-.027.094-.139.175-.046.145-.02v-.058zm-2.479-2.6l.057.015.063.122-.05-.118h-.014l-.008-.036-.024-.085.034-.087-.112-.063.053.06.025.09-.02.1-.069-.015-.062.054.111.065.021-.1zm-5.958-1.083l-.1.2-.156.193-.01.171.082.091.244-.273v-.374h-.059zm5.045-.684l.012.26.133.211.121-.109-.018-.2-.134-.152zm-4.8-.625l.012.261.19.212.092-.081-.134-.153-.1-.236h-.057zm-8.726 26.7l-.7-.273-.986-.212-.517-.278-.291-.029-.658-.2-.713-.219.008-.327-.19-.359-.1-.543-.13-.435-.215-.575-.232-.614-.3-.3-.291-.81-.548-.769-.379-.626-.6-.785-.54-.586.18-.785.324-.863.248-1 .237-.768.082-.366-.446-.407-.3-.3-.35-.228-.43-.462-.464-.442-.724-.682-.834-.7-.977-.542-.683-.51-.258-.048v-.092l.107-.057.362-.1.32-.263.356-.19.52-.322.574-.3.627-.29.541-.194.357-.282.591-.269.858-.547.6-.178.119.4.318.338.189.359.26.229.213.485.539.586.408.335.483.481.5.514.576.567.467.443.148.2.182-.005.213-.2.324-.08.217-.115-.137-.432-.31-.665-.422-.565-.028-.4-.455-.591-.382-.718-.284-.537-.43-.462-.414-.603-.521-.55.555-.342.459-.247.612-.324.267-.187.6-.177.607-.324.485-.393.5-.176.5-.356.631-.2.216-.204.174.413.184.868.219.667.139.524.3.391.233.613.563.8.086.506.242.284.254.649.469.624.348.827.412.608.247.466.045.345.259.229.006.273.262.229.121.489.472.806.4.572.516.967.1.451.188.269.281.446.117.307.168.231.135.251.172.322.15.2.022.219.207.213.23.612.467.442.526.643.578.658-.663.4-1.687.895-.252.041-.215.206-.321.171-.43.229-.357.189-.309.026-.3.3-1.766.929-.342.045-.143.167-.291.062-.444.374-.556.248-.664.4-.627.288-.306.115-.268.188-.342.136-.249.224zm-2.086-5.535l.028.008.133.16.218.068-.021-.127-.258-.14-.1.03-.082-.025.02.036-.035.018.1-.029zm3.329-5.466l-.652.161-.535.376-.379.155-.158.13-.254.043-.283.333-.281.425-.094.6.365.773.357.59.084.416.377.535.358.59.629.4.547.076.376-.155.789-.418.716-.382.379-.154-.254-.648-.41-.517-.062-.289-.267-.592-.267-.5-.413-.515-.041-.254-.189-.267-.207-.4zm3.935 4.3l-.143.075.172.323.114.215.072-.038-.133-.251zm-8.178-1.037l-.074.039-.176.184-.139.258.058.108.075.053.055.016-.019-.035-.057-.107.213-.205.047-.256.129-.022v.09l.159-.04.142-.167-.054-.016-.16.131zm7.01-2.984l-.016.145-.085.183.236.014.125-.113-.092-.087-.058-.108zm0-1.315l.058.04.021.219.013-.328.008-.016.011.052.049-.165.086-.183-.143.29-.035-.2-.032.2-.037.086-.013-.001-.05.165.065-.153zm-27.212 19.301l-.139-.051.25-.52.2-.886.319-1.081.082-.858.168-.5.072-.562.158-.54.113-.906.278-1.239.16-.708.031-.552.229-.767.06-.768.22-.806.119-.532.164-1.045.149-.748-.153-.8-.176-.541-.136-.553-.137-.551-.145-.758-.166-.169-.027-.62-.132-.513-.252-.856-.461-.85-.415-.858-.172-.374.531-.048.414-.186.246-.018.385-.138.903-.223.533-.047.414-.187.474-.116.571-.057.305-.119.316-.076.454-.2.285-.024.107.1-.1.276.058.4v.835l.029.788.185.75.135.552.136.552.137.553.148.591.193.788-.012.294.156.3.215.869.332.5.444.435.332.5.392.407.509.71.373.5.471.553.529.621.49.632.61.771.39.572.442.435.314.426.559.741.4.444.383.366.283.473.531.455.452.473.216.2.021.079-.207.009-.248.018-.611.235-1.1.273-3 .738-.8.155-.254-.691-.332-.5-.03-.286-.196-.292-.213-.365-.57-.78-.783-.977-.48-.76-.367-.455-.234-.443-.147-.09-.06.1-.031.719-.2.718.017.582-.131.826-.178.8-.141.788.045.867.115.807.045.527-.148.079-.138-.049-3.587.883-.582.018-.207.176-.633.156-.461.156-.109.068zm5.082-9.072l.1.059-.07.226-.207.009.03.119.177.04.148-.413-.353-.247-.068.058-.022.089.09.187zm-.7.1l.139.163.2.12-.06-.237-.205-.158-.062-.067zm.5-4.817l.029.116-.029-.117-.006-.026.1-.123-.029-.118.029-.049-.039.011-.076.225.013.054-.026.033-.086.02.047.03.039-.05.031-.007z" fill="#feabd0"/><path d="M67.347 146.406h14.27v20.32h-14.27z" fill="none"/><g clip-path="url(#a)" transform="translate(67 145.726)"><path d="M11.799 21L1.613 19.652l-.8-.146-.105-.752-.053-.539-.118-.635.043-.649.006-.651-.123-.3-.024-.455.04-.608-.065-.747-.067-.42.01-.08.09-.071.486.353.5.271.507.19.743.262.4.053.332-.038.267.157.211-.054.358.089.494-.016.83.231.658-.035.236.072.491.024.269.119.145-.474.025-.814.167-.634v-.614l.145-.473-.6-.078-.851-.072-.844-.113-.524-.07-.426.11-.948.038-.675.157.046-.65.075-.564.075-.563.067-.522.092-.685.17-.347-.074-.379.138-.432.015-.45.815.355.94.329.559.116.317.081.2-.013.594.159.77.062.434.14.127-.354v-.572l.176-.715-.008-.573.176-.675.062-.483.04-.937.145-.472-.071-.378.141-.76-.017-.778-.06-.829L8.67.68l.437.1.409.013.4.054.6.121 1 .173h.657l1.089.105.83.232.455-.06.066.131-.215.382-.053.4-.2.3-.198.549-.207.628-.157.881-.082.931.029.7-.154.554-.094.4.032.406-.123.313-.055.4-.068.524.006.574-.175.713-.006.655-.082.317-.162.921-.088.971-.115.558-.04.61-.055.73-.165.633-.066.483.08.338-.186.467.028.413-.113.231.026.741-.122.925.1.751.07.707v.326l-.205.014zm-2.372-3.755l-.066.2-.168.02.025.126.163.021.093-.11.018-.122-.024-.126-.041-.005zm.487-.878l.142.142.061.171.039.006v-.287l-.32-.37-.028-.011-.009-.038-.014-.2-.023.159v.065l-.088-.035.093.164.008.222-.017-.088-.24-.032.048.252.167-.019.044-.024-.029.231.059-.156-.016-.083.12-.067zm.224-2.018l-.046.035-.114.23-.22.134.029.086.308-.164z" fill="#feabd0"/></g><path d="M61.375 163.963l-.736-.232-1.786-.667-.2-.162-.294-.022-.342-.13-.457-.17-.38-.143-.223-.212-.424-.028-1.863-.7-.262-.227h-.22l-.241-.167-.576-.086-.557-.251-.736-.231-.633-.28-.289-.152-.32-.075-.328-.167-.332-.036-.258-.7-.5-.878-.133-.57-.164-.241-.287-.627-.313-.679.25-.211.15-.378.331-.438.232-.391.289-.542.3-.58.027-.423.421-.756.211-.919.22-.7.187-.97.08-.794.702-.385.861-.329.915-.481.73-.334.331-.182.007-.6.028-.423-.063-.411.061-.628.023-.643.023-.988-.023-1.097-.244-1.088-.074-.85-.133-.224.065-.062.115.043.314.2.408.066.382.143.586.174.607.228.633.279.5.275.447.08.595.265.979.28.527.331-.217.351-.041.461-.142.381v.343l-.222.481-.08.792.02.528-.038.681-.05.715-.041.809-.024.641-.047.243.122.133.3.023.278.19.226.085.235-.39.293-.67.127-.689.279-.286.142-.727.28-.759.213-.571.06-.628.18-.713.066-.756.621.189.5.185.647.241.313.078.529.328.647.241.613.1.465.26.6.136.566.342.3.024-.2.4-.52.718-.355.6-.3.451-.1.485-.3.581-.227.955-.322.4-.053.371-.316.618-.157.766-.386.807-.18.713-.188.5-.226.263v.346l-.2.186v.347l-.286.413-.289.89-.166.674-.382 1.027-.27.376-.076.319-.148.509-.152.29-.059.28-.1.267-.128.342-.047.242-.148.163-.024.294-.3.581-.023.642-.131.817-.109.869zm-2.9-4.768l-.128.343-.086.229.078.029.1-.268.192-.275-.153-.057zm-1.2-6.649l-.437.012-.5.072-.514.328-.337.783-.2.662-.256.338-.149.638-.205.661.117.736.305.461.365.18.836.312.762.284.367.18.316-.618.113-.652.176-.238.264-.595.2-.533.112-.651.163-.2.076-.319.157-.418.236-.517-.552-.38-.637-.151-.365-.18-.205-.033-.2-.162zm3.588 3.163l-.119.085-.193.058.146.185.168.018v-.129l.042-.114zm.985-.871l.007.07-.146.161.252-.21.021-.006-.035.044.154-.072.2-.058-.315.085.125-.156-.172.11-.087.029v-.019l-.157.072.157-.053zm-9-.3l.084.053.012.027-.032.2.1.209.082-.1-.073-.281-.089-.057-.035-.076-.013.037zm.79-2.135l-.285.068-.041.113.008.092.026.051.014-.037.042-.115.3.023.223-.132.1.079-.066.063.139.095.218-.005-.023-.051-.205-.033-.11-.171-.076-.028-.257-.01zm-11.447 3.501l-.235-.012-.145-.148-.449-.351-5.288-3.56-.786-.577-.7-.421-.707-.477-.673-.454-.478-.371.227-.483.173-.624.375-.774.217-.541.25-.662.219-.686.476-.854.092-.572.24-.282.458.7.671.747.673.6.987.715 1.123.659.571.384.707.477.246.215.489-.651.339-.5.364-.538.409-.606.046-.214-.619-.318-.4-.419-.5-.194-.863-.534-.586-.3-.674-.16-.584-.3.328-.56.72-.925.635-.942.291-.442.4-.516.093-.281.2-.011.212.338.347.284.079.247.337.228.381.452.571.387.539.363.551.419.56.329.364-.539.387-.571.057-.3.42-.4.238-.427.191-.213-.414-.328-.438-.148-.337-.373-.516-.256-.392-.217-.292-.294-.549-.273-.527-.454-.262-.126-.335-.226-.832-.219-.553-.127-.719-.094-.134-.238.566-.549.418-.4.623-.56.6-.673.666-.628.623-.56.464-.618.239-.134.2-.01.122.18.305.059.2.282.572.24.438.293.794.635.832.511.561.475.707.33.494.431.248.068.5.487.716.386.4.272.215.194.359.194.561.476.562.328.382.16.246.215.088.158-.269.112-.227.337-.611.469-.7.752-.533.863-.352.449-.318.471-.318.472-.283.494-.535.718-.183.415-.384.428-.554.9-.524.772-.306.382-.34.506-.125.4-.42.4-.578.931-.319.472-.316.47-.333.513-.316.471-.319.472-.352.448-.342.5-.486.8-.3.877-.271.7-.059.3zm-.7-5.828l-.049.033-.125.113.195-.15h-.017l.129-.086-.113-.125-.147.146.1.068h.028zm2.3-3.523l-.1.078v.147l.032.169.033.022.159.058.089.159.055.134.057-.01.023-.18-.2-.283zm-.43-.95l.052.057.189.226.068-.1-.144-.147.137-.2.078-.191-.034-.022-.283.2zm2.683-1.522v.06l-.1.091.1-.078v-.012l.024-.022.078-.045.09.011.035-.124-.048.068-.077.044-.1.005v-.074l-.066-.044-.033.123.1-.005zm1.486-1.325l-.247.077-.17.179.135.091.191-.067.113-.168zm-.584-4.8l-.247.076-.158.237.1.068.114-.168.205-.157zm-1.768-.067l-.17.033-.066.1.324.17.361-.1-.009-.056-.218-.043zm-17.932 7.176l-.232-.064-.11-.175-.361-.442-4.371-4.636-.641-.736-.586-.563-.586-.621-.556-.59-.389-.471.328-.42.3-.567.537-.673.329-.479.392-.592.361-.622.653-.729.215-.539.294-.222.293.784.492.878.526.731.8.915.954.889.472.5.586.621.192.266.621-.528.441-.419.473-.445.533-.5.09-.2-.522-.443-.3-.5-.449-.3-.729-.71-.5-.417-.623-.306-.506-.417.446-.475.912-.75.826-.78.384-.363.5-.416.15-.255.2.035.131.377.279.354.02.258.279.3.272.525.474.5.446.472.445.53.473.445.473-.446.5-.472.122-.284.5-.3.326-.364.235-.166-.332-.412-.4-.24-.246-.438-.449-.358-.336-.3-.221-.352-.478-.386-.412-.558-.227-.178-.279-.3-.766-.396-.51-.246-.68-.248-.077-.263.673-.411.5-.3.731-.41.732-.523.791-.467.729-.41.59-.5.257-.079.2.036.08.2.284.126.135.32.507.36.363.383.639.793.7.682.444.589.617.475.387.529.229.121.379.586.618.533.336.355.164.235.308.266.445.589.476.445.336.239.2.263.05.175-.289.049-.3.279-.7.326-.851.577-.711.727-.438.362-.414.389-.414.391-.387.419-.677.584-.268.366-.47.331-.74.753-.68.642-.382.306-.443.418-.213.366-.5.3-.769.783-.414.391-.412.39-.443.418-.414.391-.414.389-.442.362-.441.419-.653.67-.482.79-.42.621-.123.282zm.617-5.837l.211.03-.089.084h.058l.037-.079.051.054-.027-.087-.015.014.046-.1-.26.077-.012.005h-.015l-.062.025-.146.081.222-.1zm3-2.934l-.117.054-.033.143-.005.173.029.028.14.091.053.174.023.144h.059l.062-.171-.134-.321zm-.214-1.021l.038.069.134.263.09-.084-.11-.175.176-.169.121-.167-.03-.029-.319.133-.1.159-.043-.078-.034.144.021.022zm2.915-1.024l-.063.113.1.017-.013.057-.12.067.117-.054v-.013l.026-.014.087-.026.085.032.061-.112-.059.054-.086.026-.1-.017.016-.071-.054-.058zm1.773-.841l-.257.022-.207.139.113.118.2-.023.146-.139v-.116zm.484-4.811l-.256.02-.207.2.082.088.148-.139.234-.11zm-1.882-.457l-.088.085.279.237.375-.018v-.062l-.2-.09-.2-.15-.171-.005zm-16.147-8.996a.716.716 0 01-.453-.187l-.022-.018a.39.39 0 00-.2-.078.288.288 0 00-.125.033 5.2 5.2 0 00-.911-.344c-.206-.064-.419-.13-.622-.212-.054-.019-.124-.075-.108-.127a.5.5 0 00-.16-.329.4.4 0 01-.14-.292.75.75 0 00-.146-.48 1.176 1.176 0 01-.124-.25l-.13-.267-.007-.015-.182-.374c-.054-.108-.106-.217-.161-.33l-.178-.365a.362.362 0 01-.015-.308 7.125 7.125 0 01.362-1.035c.082-.2.166-.408.236-.611a2.094 2.094 0 01.1-.454.079.079 0 010-.061.082.082 0 01.039-.047l.073-.036.063-.036a.26.26 0 00.119.033.315.315 0 00.181-.075.84.84 0 01.1-.063 20.987 20.987 0 002.045-1 .707.707 0 01.314-.077.566.566 0 01.269.07c.208.071.426.138.637.2.234.072.475.147.7.226a.59.59 0 00.3.1.477.477 0 00.06 0 .526.526 0 01.379.312.644.644 0 00.2.307c.029.031.06.063.087.1a.44.44 0 00.095.4 1.078 1.078 0 01.064.109c.075.151.136.278.2.421l.043.09a1.049 1.049 0 00.29.4.506.506 0 01.193.491.156.156 0 00.018.128c.33.394.081.8-.1 1.089a.236.236 0 00-.039.2.236.236 0 01-.039.2c-.062.061-.2.217-.183.361a1.191 1.191 0 01-.124.453 1.81 1.81 0 00-.1.291.024.024 0 010 .019c-.009.028-.065.055-.124.084h-.006a.266.266 0 01-.116.017h-.02a.253.253 0 00-.113.017.291.291 0 00-.093.091.291.291 0 01-.09.089.813.813 0 01-.155.052.79.79 0 00-.155.053.662.662 0 00-.383.142.956.956 0 01-.733.355.7.7 0 00-.512.249.547.547 0 01-.4.287zm-.211-3.505l.084.007a.2.2 0 010 .025c0 .029.007.057.044.07a.416.416 0 00.107.128l.025-.01a.159.159 0 00.116-.146.2.2 0 01-.1.037c-.039 0-.071-.026-.1-.081-.008-.017-.028-.018-.086-.022h-.001a.077.077 0 000-.013l-.018-.036a.22.22 0 01-.082-.059.213.213 0 00-.069-.053c-.029.014-.066.031-.064.051s.072.057.218.093c-.021 0-.043 0-.069.008a3.12 3.12 0 01-.3-.046.236.236 0 00.131.062.071.071 0 00.031-.007.1.1 0 00.036.006.39.39 0 00.067-.009h.036zm.354-.366c0 .042-.01.077-.015.107-.011.069-.017.1 0 .128a.918.918 0 00.054.1.6.6 0 01-.009.1l.009-.005.032-.018v-.034a.166.166 0 00.032.018c.073-.037.145-.072.093-.182l-.014-.011a.1.1 0 00-.048-.027c-.026 0-.041.048-.062.2a.179.179 0 01-.037-.043 1.952 1.952 0 00-.031-.329zm-.864-.653c-.058 0-.076.05-.1.132v.006a.053.053 0 010 .045.053.053 0 000 .045.3.3 0 01.082-.017.3.3 0 00.082-.017l.037-.018.144-.071a.052.052 0 00.027-.035.055.055 0 01.023-.034h-.015a.079.079 0 01-.025-.005.066.066 0 00-.024-.006.044.044 0 00-.021.006.184.184 0 00-.081-.012.192.192 0 01-.071-.01.184.184 0 00-.058-.009zm1.132-.012l-.062.031-.16.076a.82.82 0 01-.164.126h.051a.478.478 0 00.205-.034h.118a.216.216 0 00.1-.022c.036-.017.053-.07.07-.121v-.006a.234.234 0 01-.044-.019.19.19 0 00-.115-.033zm42.666 11.034l-1.362-3.043 2.1-.94a2.486 2.486 0 001.389-2.19 13.2 13.2 0 00-1.4-6.278L46.659 79.844a12.94 12.94 0 00-3.911-5.441 2.757 2.757 0 00-2.841.012l-1.649.738-1.372-3.065 20.527-9.193 23.6 14.63 4.652-27.283 20.485-9.173 1.4 3.116-1.615.725a2.769 2.769 0 00-1.9 2.111 13.1 13.1 0 001.4 6.5l14.93 33.356a13.416 13.416 0 003.7 5.212 2.5 2.5 0 002.611.43l2.1-.941 1.362 3.043-25.8 11.553-1.362-3.042 2.1-.941a2.5 2.5 0 001.406-2.266 13.42 13.42 0 00-1.4-6.2L96.201 73.91l-5.164 26-22.918-13.335 8.855 19.772a13.34 13.34 0 003.7 5.186 2.495 2.495 0 002.6.426l2.1-.94 1.363 3.043-25.867 11.58zm.844-42.624l11.237 25.093c1.6 3.569 2.366 4.878 3.277 5.6l.041.035c.054.046.11.094.17.136l-10.627 4.759-.387 2.2 15-6.716a8.282 8.282 0 01-2.985-2.119 17.967 17.967 0 01-2.842-4.734l-10.18-22.718zm40.26-37.408l-.472.212-1.47.658-.051.023c-.795 3.419.271 6.233 1.43 8.822l14.936 33.352c1.717 3.833 2.467 5.073 3.491 5.769l-10.578 4.738-.388 2.2 14.987-6.715.051-.023c-2.109-.907-3.82-2.37-5.828-6.853l-14.895-33.262a13.26 13.26 0 01-.772-1.824l-.031-.1-.035-.11a13.474 13.474 0 01-.533-5.985l-.037-.08a8.81 8.81 0 01.2-.823zm-9.087 20.691l-4.828 26.956 1.268 2.832 4.928-26.72zm-35.825-.853l-.053.023-2.046.917-.053.023 29.3 18.379-.063-.141.158.1-1.3-2.783-25.946-16.518z" fill="#feabd0"/></svg>