<svg data-name="Logos/Manumit Logo" xmlns="http://www.w3.org/2000/svg" width="214" height="44.495"><defs><clipPath id="a"><path data-name="Clip 30" d="M0 0h33.824v26.152H0z" fill="none"/></clipPath></defs><g data-name="Group 44"><path data-name="Fill 1" d="M49.772 44.227a5.367 5.367 0 01-3.548-1.262 4.537 4.537 0 01-1.546-3.526 4.569 4.569 0 011.546-3.586 5.41 5.41 0 013.548-1.226 5.453 5.453 0 013.568 1.226 4.582 4.582 0 011.558 3.586 4.522 4.522 0 01-1.562 3.526 5.418 5.418 0 01-3.564 1.262zm0-7.508a2.4 2.4 0 00-1.758.72 2.819 2.819 0 00-.717 2 2.454 2.454 0 002.475 2.7 2.429 2.429 0 001.772-.714 2.779 2.779 0 00.719-1.982 2.8 2.8 0 00-.725-1.996 2.416 2.416 0 00-1.766-.72z" fill="#454547"/><path data-name="Fill 3" d="M114.328 44.227a5.367 5.367 0 01-3.548-1.262 4.537 4.537 0 01-1.546-3.526 4.569 4.569 0 011.546-3.586 5.41 5.41 0 013.548-1.226 5.454 5.454 0 013.568 1.226 4.582 4.582 0 011.557 3.586 4.522 4.522 0 01-1.561 3.526 5.418 5.418 0 01-3.564 1.262zm0-7.508a2.4 2.4 0 00-1.758.72 2.819 2.819 0 00-.717 2 2.454 2.454 0 002.475 2.7 2.429 2.429 0 001.772-.714 2.779 2.779 0 00.719-1.982 2.8 2.8 0 00-.725-1.996 2.416 2.416 0 00-1.766-.72z" fill="#454547"/><path data-name="Fill 5" d="M176.291 38.245c-1.957-.318-2.613-.513-2.613-.974 0-.4.266-.707 1.261-.707a7.179 7.179 0 012.778.661 1.024 1.024 0 01.512.431l.241.435.333-.189.118-.067-.38-3.044a1.093 1.093 0 01-.712.251 20.019 20.019 0 00-2.952-.379c-2.138 0-3.675 1.245-3.675 2.87 0 1.394.831 2.337 2.952 2.691 1.968.328 2.834.471 2.834 1.168 0 .513-.394.733-1.379.733-1.886 0-3.279-.892-3.5-1.942a1.363 1.363 0 00-.945 1.368c0 1.3 1.328 2.685 4.131 2.685 2.891 0 4.1-1.455 4.1-3.182.031-1.4-.778-2.424-3.105-2.808" fill="#454547"/><path data-name="Fill 7" d="M137.097 38.245c-1.957-.318-2.613-.513-2.613-.974 0-.4.266-.707 1.261-.707a7.179 7.179 0 012.778.661 1.027 1.027 0 01.512.431l.236.435.338-.189.117-.065-.379-3.047a1.107 1.107 0 01-.707.226 20.019 20.019 0 00-2.956-.379c-2.133 0-3.671 1.245-3.671 2.87 0 1.394.826 2.337 2.952 2.691 1.968.328 2.834.471 2.834 1.168 0 .513-.394.733-1.379.733-1.886 0-3.28-.892-3.5-1.942a1.362 1.362 0 00-.936 1.393c0 1.297 1.326 2.687 4.134 2.687s4.1-1.455 4.1-3.182c.025-1.4-.789-2.424-3.121-2.808" fill="#454547"/><path data-name="Fill 9" d="M158.124 41.422a.748.748 0 01-.513.4 2.626 2.626 0 01-.707.093h-3.249v-1.646h.682a2.051 2.051 0 01.974.195.4.4 0 01.231.343v.384h.513v-3.52h-.513v.364a.4.4 0 01-.231.343 2.1 2.1 0 01-.974.195h-.682v-1.645h3.121a3.529 3.529 0 01.9.1.451.451 0 01.318.328l.061.171.513-.164-.567-2.716a3.674 3.674 0 01-1.6.185h-6.246v.515h.246a.56.56 0 01.513.3 2.3 2.3 0 01.164.922v5.709a2.155 2.155 0 01-.194.963l-.042.066a.568.568 0 01-.461.164h-.226v.513h6.391a3.591 3.591 0 011.727.263l.513-3-.462-.24z" fill="#454547"/><path data-name="Fill 11" d="M92.573 41.422a.765.765 0 01-.513.4 2.59 2.59 0 01-.7.093h-3.256v-1.646h.682a2.051 2.051 0 01.978.195.393.393 0 01.231.343v.384h.513v-3.52h-.512v.364a.4.4 0 01-.231.343 2.124 2.124 0 01-.978.195h-.683v-1.645h3.116a3.628 3.628 0 01.907.1.461.461 0 01.318.328l.052.169.512-.164-.564-2.714a3.672 3.672 0 01-1.6.185h-6.287v.515h.241a.564.564 0 01.513.3 2.3 2.3 0 01.164.922v5.709a2.221 2.221 0 01-.195.963.267.267 0 01-.041.066.557.557 0 01-.456.164h-.226v.513h6.407a3.6 3.6 0 011.731.263l.538-3-.466-.24z" fill="#454547"/><path data-name="Fill 13" d="M82.811 41.422a.764.764 0 01-.513.4 2.59 2.59 0 01-.7.093h-3.256v-1.646h.679a2.049 2.049 0 01.978.195.394.394 0 01.232.343v.384h.512v-3.52h-.509v.364a.4.4 0 01-.232.343 2.132 2.132 0 01-.978.195h-.682v-1.645h3.142a3.628 3.628 0 01.907.1.442.442 0 01.313.328l.057.169.512-.164-.565-2.714a3.717 3.717 0 01-1.6.185h-6.287v.515h.242a.57.57 0 01.512.3 2.409 2.409 0 01.158.922v5.709a2.216 2.216 0 01-.189.963.267.267 0 01-.041.066.558.558 0 01-.456.164h-.226v.513h6.386a3.609 3.609 0 011.733.263l.512-3-.467-.24z" fill="#454547"/><path data-name="Fill 15" d="M124.531 44.005h-4.238v-.512h.191a.3.3 0 00.265-.161 7.318 7.318 0 00.395-.865c.329-.819 1.1-3.209 1.558-4.637v-.008c.107-.332.2-.615.264-.818a2.5 2.5 0 00.141-1.384c-.051-.25-.223-.25-.374-.25h-.21v-.513h6.4v.513h-.21c-.156 0-.328.019-.379.25a2.469 2.469 0 00.144 1.384c.055.186 1.473 4.553 1.815 5.463a4.861 4.861 0 00.384.836l.051.082a.3.3 0 00.3.108h.153v.511h-4.476v-.511h.2a.425.425 0 00.394-.267 2.049 2.049 0 00-.001-1.369h-3.351a2.052 2.052 0 000 1.393.424.424 0 00.383.247h.2v.512zm.98-7.042l-1.027 3.075h2.215l-.979-3.075z" fill="#454547"/><path data-name="Fill 17" d="M149.043 37.338l-.513-2.665a5.061 5.061 0 01-1.362.159h-4.162a5.049 5.049 0 01-1.368-.159l-.513 2.665.107.052.365.183.19-.374a.264.264 0 01.23-.184 5.491 5.491 0 011.168-.087h.579v5.355a2.125 2.125 0 01-.194.979.4.4 0 01-.345.231h-.368v.512h4.438v-.512h-.363a.393.393 0 01-.348-.231 2.117 2.117 0 01-.2-.979v-5.355h.564a5.491 5.491 0 011.177.087.342.342 0 01.235.184l.185.374.369-.184.1-.052z" fill="#454547"/><path data-name="Fill 19" d="M105.662 44.205c-1.235 0-1.949-1.053-2.579-1.982-.488-.719-.948-1.4-1.587-1.545v1.6a1.993 1.993 0 00.226 1.025.48.48 0 00.378.185h.3V44h-4.436v-.512h.34a.415.415 0 00.374-.238 2.126 2.126 0 00.19-.974v-5.732a2.142 2.142 0 00-.18-.943.513.513 0 00-.513-.272h-.231v-.512h5.812a4.492 4.492 0 012.937.9 2.8 2.8 0 011 2.206 2.629 2.629 0 01-.806 1.929 3.024 3.024 0 01-2.136.787c-.043 0-.087.005-.131.005s-.087 0-.13-.005a3.135 3.135 0 001.681.7h.016a.778.778 0 00.676-.394 1.434 1.434 0 01.881 1.333 1.862 1.862 0 01-2.082 1.927zm-4.192-7.277v2.1h2.245c.894 0 1.348-.345 1.348-1.025s-.481-1.075-1.354-1.075z" fill="#454547"/><path data-name="Fill 21" d="M167.592 44.205c-1.239 0-1.954-1.054-2.585-1.984-.488-.719-.948-1.4-1.587-1.543v1.6a1.993 1.993 0 00.226 1.025.479.479 0 00.381.185h.3V44h-4.435v-.512h.366a.41.41 0 00.372-.238 2.142 2.142 0 00.19-.974v-5.732a2.135 2.135 0 00-.185-.943.513.513 0 00-.513-.272h-.23v-.512h5.812a4.489 4.489 0 012.936.9 2.8 2.8 0 011 2.206 2.631 2.631 0 01-.8 1.929 3.055 3.055 0 01-2.131.787c-.044 0-.088.005-.131.005s-.087 0-.131-.005a3.118 3.118 0 001.676.7h.012a.8.8 0 00.685-.394 1.449 1.449 0 01.861 1.337 1.862 1.862 0 01-2.089 1.923zm-4.17-7.277v2.1h2.246c.882 0 1.348-.355 1.348-1.025 0-.694-.479-1.076-1.348-1.076z" fill="#454547"/><path data-name="Fill 23" d="M63.849 34.652a3.6 3.6 0 01-1.6.184h-5.99v.516h.169a.637.637 0 01.559.3 2.124 2.124 0 01.172.906v5.73a2.159 2.159 0 01-.192.964.483.483 0 01-.482.236h-.226V44h4.514v-.508h-.394a.473.473 0 01-.359-.165 2.407 2.407 0 01-.236-1.189 1.672 1.672 0 011.682-1.886c.6 0 .979.277.979.733a1.216 1.216 0 001.3-1.124v-.045c0-.891-.733-1.609-2.05-1.609a2.178 2.178 0 00-1.915 1.077v-2.347h2.859a2.292 2.292 0 011.025.133.358.358 0 01.2.225l.031.159.379-.077h.134z" fill="#454547"/><path data-name="Fill 25" d="M73.13 34.652a3.629 3.629 0 01-1.595.184h-6v.516h.174a.62.62 0 01.554.3 2.042 2.042 0 01.179.913v5.73a2.232 2.232 0 01-.194.957.483.483 0 01-.483.24h-.23v.512h4.515v-.512h-.39a.482.482 0 01-.364-.165 2.471 2.471 0 01-.231-1.189 1.671 1.671 0 011.677-1.886c.605 0 .985.277.985.733a1.215 1.215 0 001.293-1.128.371.371 0 000-.04c0-.891-.732-1.609-2.05-1.609a2.163 2.163 0 00-1.909 1.076v-2.347h2.854a2.3 2.3 0 011.02.134.371.371 0 01.206.225l.03.159.38-.077h.128z" fill="#454547"/><path data-name="Fill 27" d="M41.805 40.018a2.06 2.06 0 01-2.337 2.1 2.592 2.592 0 01-2.738-2.43 2.466 2.466 0 010-.307 2.473 2.473 0 012.756-2.628 4.337 4.337 0 012.465.712.519.519 0 01.221.3l.04.235.359-.056h.154l-.21-3.072a1.161 1.161 0 01-.666.169 19.318 19.318 0 00-2.43-.353c-2.86 0-5.314 1.722-5.314 4.709a4.874 4.874 0 004.875 4.873h.2c2.767 0 3.987-1.455 3.987-2.885a1.306 1.306 0 00-1.244-1.367h-.115" fill="#454547"/><g data-name="Group 31"><path data-name="Clip 30" d="M0 1.152h33.824v26.152H0z" fill="none"/><g data-name="Group 31" clip-path="url(#a)" transform="translate(0 1.152)"><path data-name="Fill 29" d="M16.958 10.249L10.025 0H0v1.5h.805a1.23 1.23 0 011.158.512 5.767 5.767 0 01.6 2.927v16.282a5.844 5.844 0 01-.573 2.808 1.113 1.113 0 01-.964.636H0v1.487h12.627v-1.487H11.6a1.111 1.111 0 01-.979-.646 5.929 5.929 0 01-.559-2.783v-9.654l6.893 9.6 6.837-9.634v9.675A5.961 5.961 0 0123.236 24a1.107 1.107 0 01-.985.666h-1.024v1.487h12.6v-1.488H32.8a1.117 1.117 0 01-.985-.65 5.953 5.953 0 01-.553-2.793V4.935a5.82 5.82 0 01.614-2.9 1.236 1.236 0 011.158-.513h.79V0h-10z" fill="#454547"/></g></g><path data-name="Fill 32" d="M48.301 27.304H36.273v-1.5h.457a.85.85 0 00.84-.441 22.3 22.3 0 001.133-2.471c.835-2.073 2.637-7.672 3.954-11.761.511-1.586.952-2.955 1.238-3.813a7.3 7.3 0 00.4-3.941c-.145-.64-.6-.728-1.076-.728h-.6V1.152h18.23v1.5h-.6c-.473 0-.931.088-1.076.728a7.109 7.109 0 00.415 3.956c.042.129 4.2 12.9 5.191 15.574a15.2 15.2 0 001.094 2.379l.143.226a.84.84 0 00.738.3h.447v1.486H54.425v-1.5h.62a1.182 1.182 0 001.107-.754 5.871 5.871 0 000-3.91h-9.563a5.832 5.832 0 00.046 3.972 1.188 1.188 0 001.086.707h.579v1.487zm2.762-20.135l-2.839 8.814h6.236l-2.8-8.814h-.6z" fill="#454547"/><path data-name="Fill 34" d="M87.484 2.652h1.025a1.117 1.117 0 01.98.651 5.994 5.994 0 01.559 2.788v5.786L79.643 1.152H69.63v1.5h1.025a1.117 1.117 0 01.975.648 5.93 5.93 0 01.559 2.788v16.285a5.93 5.93 0 01-.559 2.779 1.114 1.114 0 01-.964.661h-1.021v1.486h12.627v-1.481h-1.025a1.108 1.108 0 01-.979-.651 5.89 5.89 0 01-.559-2.778V10.341c6.955 6.253 10.352 10.276 10.352 13.524a2.787 2.787 0 01-.379 1.44 1.339 1.339 0 01-1.2.513h-.979v1.486h12.627v-1.486h-1.028a1.111 1.111 0 01-.98-.651 5.9 5.9 0 01-.558-2.778V6.087a5.9 5.9 0 01.558-2.783 1.115 1.115 0 01.98-.656h1.028V1.152H87.484z" fill="#454547"/><path data-name="Fill 36" d="M175.087 2.652h1.025a1.123 1.123 0 01.985.651 5.986 5.986 0 01.559 2.788v16.282a5.961 5.961 0 01-.56 2.779 1.108 1.108 0 01-.974.667h-1.024v1.486h12.622v-1.487h-1.025a1.129 1.129 0 01-.985-.651 5.951 5.951 0 01-.553-2.778V6.087a5.981 5.981 0 01.553-2.788 1.126 1.126 0 01.985-.651h1.025V1.152h-12.633z" fill="#454547"/><path data-name="Fill 38" d="M211.918.706a14.575 14.575 0 01-3.884.446h-11.847a14.55 14.55 0 01-3.881-.446l-1.419 7.585.3.148 1.026.513.513-1.066a1.024 1.024 0 01.671-.513 16.46 16.46 0 013.322-.236h1.645v15.236a5.885 5.885 0 01-.549 2.778 1.116 1.116 0 01-.958.667h-1.025v1.488h12.628v-1.489h-1.026a1.108 1.108 0 01-.978-.651 5.881 5.881 0 01-.559-2.778V7.132h1.6a16.458 16.458 0 013.327.236 1.026 1.026 0 01.666.512l.513 1.066 1.025-.513.3-.148z" fill="#454547"/><path data-name="Fill 40" d="M154.649 11.401l-6.933-10.249h-10.025v1.5h.81a1.234 1.234 0 011.158.512 5.829 5.829 0 01.611 2.9v16.309a5.907 5.907 0 01-.559 2.779 1.109 1.109 0 01-.98.666h-1.024v1.487h12.627v-1.488h-1.026a1.111 1.111 0 01-.978-.646 5.992 5.992 0 01-.559-2.783v-9.654l6.878 9.6 6.837-9.634v9.675a5.9 5.9 0 01-.569 2.777 1.106 1.106 0 01-.968.666h-1.026v1.487h12.628v-1.488h-1.025a1.111 1.111 0 01-.979-.646 5.92 5.92 0 01-.559-2.783V6.087a5.757 5.757 0 01.615-2.9 1.225 1.225 0 011.153-.513h.809V1.152h-10.054z" fill="#454547"/><path data-name="Fill 42" d="M121.456 2.652h.744a1.39 1.39 0 011.2.646 6.284 6.284 0 01.564 2.825v10.121c0 3.214-1.717 5.678-5.233 5.678s-5.079-2.465-5.079-5.678V6.123a6.156 6.156 0 01.574-2.814 1.6 1.6 0 011.338-.657h.769v-1.5h-12.669v1.5h.978a.913.913 0 01.738.323l.052.072.061.092a5.816 5.816 0 01.708 2.988v10.081c0 7.211 5.345 11.689 12.55 11.689s12.627-4.519 12.776-11.689V6.123a5.557 5.557 0 01.764-3.071 1.025 1.025 0 01.865-.41h.985v-1.49h-12.685z" fill="#454547"/></g></svg>