<svg width="323" height="132" xmlns="http://www.w3.org/2000/svg"><g fill="none"><path d="M15.904 66.134c1.072.268 2.278.402 3.484-.268 1.474.134 3.082-.402 4.69.268 1.34-.134 2.948.402 4.288-.134a.854.854 0 01.804 0c.804.402 1.608.268 2.412 0 .67-.134 1.474-.268 2.278.134.134 0 .536.134.67 0 1.608-.268 1.608-.268 3.35 0 .268.134.67.134.938 0 1.206-.268 1.206-.268 2.412 0 .536.134 1.206.268 1.608 0 1.072-.536 2.144-.402 3.082-.134 1.072.134 2.144.402 3.216-.134 0 0 .268.134.402.134.134.134.402.134.536.134.67 0 1.206 0 1.742-.268.67-.268 1.206.268 1.876.268 0 0 .134.134.134 0 .804-.536 1.608-.134 2.412-.268h2.814c.134 0 .134.402.536.134.536-.268.938-.536.938-1.206 0-.402 0-.804.268-1.072.67-.536.67-1.34.938-2.01.402-.67.536-1.474.938-2.144.536-.804.938-1.742 1.34-2.546.134-.402-.134-.804-.536-.804-1.34.134-2.68-.402-3.886.268-.134.134-.268 0-.268 0-1.608-.402-2.01-.268-3.886 0-.536.134-1.206.268-1.742-.134-.268-.134-.67-.268-.938-.134-1.206.536-2.278.536-3.484 0-.268-.134-.67-.134-.938.134-.402.268-.804.134-1.206.134a1.86 1.86 0 01-1.206 0c-.402 0-.804-.268-1.206-.268H41.23c-.268 0-.536 0-.67.134-.536.402-1.206.268-1.608.134-1.072-.402-2.01-.134-2.948-.268-.402 0-.804 0-1.206.268-.268.134-.67-.268-1.072-.268-.268 0-.67.134-.938.134-.134.134-.402.134-.536.134-.402-.402-.804-.268-1.206-.268-1.34.134-2.546-.134-3.886.268-.536.268-1.34.134-1.876 0-.67 0-1.206-.268-1.876-.268-.938 0-2.01-.268-2.948 0-1.072.402-2.01-.268-3.082 0-.402.134-.938 0-1.474 0-.268 0-.536 0-.804-.134-1.072-.67-2.278-1.072-3.082-2.01-.804-1.206-1.608-2.278-1.474-3.752a5.768 5.768 0 000-2.144c0-2.412.268-4.958-.134-7.37-.268-1.34.402-2.814.134-4.02-.268-1.34-.134-2.546-.268-3.752 0-.536.268-.938.268-1.34 0-.402-.134-.938-.268-1.34v-.268c.536-.536.268-1.206.268-1.876.134-.804 0-1.608-.268-2.412-.268-.938.536-2.01 0-3.082 0-.134.134-.402.134-.536.134-.268.268-.67.134-.804-.268-.536-.402-1.072 0-1.474.402-.67-.402-1.072-.268-1.608 0-.134.134-.268.134-.268.268-.402.268-.67 0-1.072 0-.134-.134-.402 0-.536.268-1.072.67-2.01 1.206-2.948.134-.268.268-.67.402-.67.536 0 .804-.402 1.072-.67.938-1.206 2.278-1.608 3.752-1.608h6.03c.402 0 .804-.134 1.072 0 .402.268.536-.536.938 0 .134.134.67 0 1.072 0 .67 0 1.34.268 2.01-.268.134-.134.402 0 .536 0 .804.402 1.608.402 2.412.134.402-.134.804-.268 1.072-.134 1.742.402 1.742.402 3.216 0 .134 0 .268.134.536.134s.67.268.804.134c.536-.268 1.072 0 1.474 0 2.144.134 4.288 0 6.298 0 .268 0 .804-.402.804-.268.402.402.938.268 1.34.268 1.876.134 3.618-.134 5.36.268.402.134.804.268 1.206.536 1.072.402 1.742 1.34 2.546 1.742.536.268.804.804.938 1.072.134 1.474 1.072 2.68.67 4.154 0 .536.134 1.072-.134 1.742-.268.536.134 1.34.134 2.01a.408.408 0 010 .536c-.268 1.608-.268 1.608 0 3.35.134.268.134.67 0 .938-.402.402-.268.804-.268 1.206 0 .402 0 1.072.268 1.474.268.536-.402.938-.268 1.474.134.268.268.67.268.938 0 .402-.134.804-.268 1.206 0 .268 0 .536.134.804.268.536.134 1.072 0 1.742-.134.67-.268 1.474 0 2.01.402 1.206.134 2.144-.402 3.082-.402 1.072-1.072 2.01-2.546 2.01-1.072.804-2.01 0-2.814-.536-.67-.536-1.34-1.474-1.474-2.546 0-.402.134-.938-.268-1.34.536-.536.268-1.206.268-1.742V18.698c.004-.447.022-.893.134-1.34.134-.402-.268-.804-.134-1.34s0-1.072 0-1.608c.134-.67-.134-.67-.67-.67H47.26c-.67.804-1.206-.134-1.742 0-.134.134-.402.134-.536.268-.268 0-.67.134-.67 0-.536-.536-1.206-.268-1.742-.268-.67.134-1.34.268-2.144.402-1.206 0-2.412 0-3.484-.402-.402 0-.804.134-1.206.134 0 .402.268.67.268.938v1.608l-.134.268c-.134 0-.268 0-.402-.134a1.615 1.615 0 01-.67-.67c-.268-.804-1.072-1.206-1.608-1.876-.134-.134-.67-.268-.67-.268-.536.536-.938 0-1.474 0-1.876.134-3.752-.402-5.628.268-.268.134-.804.268-1.072 0-.804-.536-1.608-.134-2.412-.268-.536 0-1.072.268-1.474.536-.402.402-.938.938-1.072 1.474-.402.67-1.206.67-1.474 1.34-.134.402-.536.804-.938 1.072-.402.268-.938.536-1.206.938-.134.536-.402.938-.804 1.072-.536.134-.938.67-1.34 1.072-.536.536-.804 1.072-.536 1.876.536 1.072.268 2.412 1.072 3.35v.446c.003.475.03.939.268 1.296.268.536-.268.938-.268 1.474 0 .268-.134.67 0 .804.536.804.268 1.608.268 2.412 0 .536-.268.938-.268 1.34 0 .536.268.938.268 1.34 0 .134.134.268 0 .268-.536.938-.268 1.876-.268 2.814 0 1.223 0 1.33-.714 2.767l-.224.449c0 .134-.134.268 0 .402.402.536-.134 1.072 0 1.742 0 .268 0 .536.268.804 1.072 1.206 2.144 2.412 3.35 3.618.536.536 1.206.938 1.876 1.608.402.268.536.804.938 1.206.268.268.804.536 1.206.938.268.268.67.536 1.206.536 1.742-.134 3.484 0 5.36 0 .402-.134.938-.536 1.206-.268 1.072.536 2.278.134 3.35.268.67 0 1.474-.268 1.742-.938.402-.536.804-.67 1.206-1.072.804-.804 1.474-1.474 2.144-2.412.536-.804.938-.67 1.474.134.268.268.402.67.67.804.536.402 1.206.67 1.34 1.34.67.268 1.072.804 1.608 1.34l.134.134c.134.804.67.804 1.072.536.804-.268 1.474-.134 2.278 0 1.474.268 2.814.134 4.288.134.402 0 .804 0 1.072-.402.134 0 .536 0 .67.134.402.536 1.072.268 1.608.134.804-.134 1.608 0 2.546 0 1.206.134 2.412.134 3.618.134.268 0 .536-.134.67-.268.938-.804 1.34-1.742 2.412-2.412.134 0 .134-.134.134-.268.804-.938 1.608-1.876 2.68-2.546.938-.67 1.608-1.474 1.608-2.814s-.402-2.68-.402-3.886c.134-2.68-.268-5.226.268-7.772-.134-1.742.402-3.484-.268-5.226-.134-.402.402-.938.268-1.474 0-1.206.402-2.546-.268-3.886 0-.134 0-.536.134-.536.268-.402.268-.67.134-1.072 0-.536.134-.938-.134-1.474-.268-.402.134-.938.134-1.474.134-1.34 0-2.68.134-4.02 0-1.206-.67-2.546-.134-3.752.134-.134.134-.268 0-.268-.402-.938-.134-2.144-1.206-2.814-.268-.134-.402-.67-.67-1.072-.134-.268-.268-.536-.536-.536-.536-.134-.938-.67-1.206-1.072-.268-.67-1.072-.67-1.34-1.34-.268-.536-.938-.804-1.34-1.206-.402-.402-.938-.67-1.474-.67-1.206 0-2.278.134-3.484 0-.536 0-1.206.268-1.742-.268a.408.408 0 00-.536 0c-.804.536-1.608.268-2.546.268h-8.576c-.67 0-1.474.268-2.278-.268 0-.134-.268-.134-.402 0-.67.536-1.474.268-2.144.268H35.87c-.402 0-1.072.134-1.34-.134-.536-.268-.804.402-1.34.268-.268-.268-.938-.134-1.34-.134h-8.04c-.67 0-1.34.268-1.876-.268 0-.134-.268-.134-.402 0-.804.536-1.742.268-2.68.268H8.802c-1.072 0-2.144 0-2.546 1.34 0 .134-.268.402-.536.536-.67.134-1.072.67-1.474 1.072a35.133 35.133 0 00-2.948 3.35c-.402.536-.67.938-.67 1.608v2.412c0 .402-.134.938 0 1.34.268.402.536.804 0 1.206-.134.134 0 .402 0 .536v4.69c.134 1.608-.402 3.216.268 4.69.134.134 0 .268 0 .268-.402.268-.268.67-.268 1.072v3.886c0 .67-.268 1.34 0 1.876.402.67 0 1.206 0 1.742 0 .134.134.402.134.536s.268.536.134.536c-.402.402-.268 1.072-.268 1.474v4.556c0 .67.134 1.474.134 2.144 0 .67-.134 1.34-.134 2.01V58.63c0 .268.134.804.268.804.804.268.804 1.474 1.876 1.608.268.134.67.536.67.804.134.67.67.938 1.072 1.206 1.072.67 1.474 1.876 2.546 2.68 0 .67.536.536.804.402.938-.268 1.876-.536 2.68 0 .134.134.536.134.67 0 .268-.402.67-.268.938-.268 1.34.134 2.546 0 3.752.268zm15.678-25.058c-1.34.402-2.278-.536-3.35-.938-.804-.402-1.206-1.206-1.206-2.144 0-.536 0-1.072-.268-1.608s-.268-1.474.134-2.144c.134-.134.134-.268.134-.402-.536-.536-.402-.938-.134-1.608.134-.134.134-.402 0-.67-.402-1.34-.402-2.546.536-3.618.402-.402.402-.938.804-1.34.804-.67 1.742-.67 2.546-.938.536-.134 1.072.134 1.608-.268l.134.134c1.474 0 2.412 1.072 3.35 2.01.134.268.536.67.402.938-.268 1.474.938 2.814 0 4.288 0 1.474.134 2.948 0 4.422 0 1.474-.67 2.546-1.876 3.35-.938.536-1.742.67-2.814.536z" fill="#FEABD0"/><path d="M87.494 81.023l.774-.258-.344-.774-.172-1.462-.43-1.376-.258-1.032.086-1.032-.086-1.806v-3.526l.086-2.064-.344-1.032.258-.688v-1.892l-.086-.774.086-1.462V58.32l.086-1.118-.258-1.29.172-.86-.086-1.032.172-.86-.086-1.462-.086-1.032.172-.86L87.064 48l.086-1.29-.086-1.29.172-2.666.688-2.408.258-1.29h-4.558l-1.118.258-.516-.258h-6.45l-.86-.086-.258.86-.43.86-.43 1.204-.688 1.72-.602.946-.172.774-.774 1.29-.344 1.118-.344.516-.516 1.462-.946 1.806-.688 1.892-.774 1.548-.43 1.29-.344.774-.258-.086-.258-.946-1.032-2.064-.86-1.892-.688-1.892-.774-1.548-.344-1.29-.602-.774-.172-1.032-.86-1.462-.688-1.72-.774-1.892-.688-1.29-1.118-.086h-3.526l-1.118.086-1.032-.086H46.3l-.602-.086-.258.344.258.602.172 1.118.344 1.29.43 1.032v6.708l.086.86-.172.946.086 1.032v2.408l.086 1.118-.086 1.118-.086 1.376v1.462l.086 2.15v11.954l-.086 2.064-.43 1.462-.344 1.548-.344 1.376h1.032l.43-.172.688.258 1.118-.086 1.376-.172h3.44l.43.258.774-.258 1.032.086h.774l.946.086.688.086.172-.172-.258-.86-.516-1.29v-.86l-.258-.86-.172-1.29v-1.376l-.258-.774.258-.86v-4.3l-.086-1.462.086-.774-.258-.774.258-.946v-4.902l-.172-.86.43-.086v.516l.516 1.204.774 2.064.946 1.72.688 1.462.516 1.462.774 1.29.43 1.29.688 1.634.774 1.29.774 1.892.688 1.548.602.086h1.806l.86-.086h.516l.43-1.118 1.032-2.064.516-1.29.602-1.634.602-.688.43-1.462.602-1.032.086-.516.774-1.462.774-1.548.43-1.376 1.032-1.978.344-.946h.172v2.494l-.086.86.086 1.806v10.406l-.086 1.806-.516 1.72-.258 2.064-.344.946.516-.086h.602l1.118.172 1.118-.086h.86l.86.086.774-.086 1.032-.172 1.29.258.946-.258h1.548l1.462.258zm-6.45-30.1h-.258l-.258-.172v-.258l.344.086.172.344zm-.172 2.15h-.086l-.086-.43-.086-.43.172-.086.258.086-.172.86zm-3.268 1.892l-.43-.086.258-.344.344.172-.172.258zM60.92 56.513l-.172-.172-.344-.172v-.172h.344l.086.344.086.086.196-.049-.024.05-.172.085zm3.182 2.838h-.344l-.172-.43.086-.258.258.172.172.43h.085l-.085.086zm-11.61.774l-.344-.172v-.258l-.172-.344.258-.086.172.344.086.258v.258zm-2.236.086h-.258v-.258l.172-.086.258.086.172.172-.344.086zm30.186.43l-.172-.086.172-.43.172-.086v.258l-.172.344zm-12.814 1.29h-.086l-.172-.602-.516-.344.086-.172.344-.086.258.516.172.43-.086.258zm-.946.516l-.516-.086-.344-.43.344-.43-.086-.258v-.258l.172.172-.086.172.172.086.258.086-.258.258-.086.344h.516l.344-.138v.138l-.43.344zm14.62.43v-.344l-.172-.516.086-.172.086.086-.086.258.172.086.258.172-.172.344-.172.086zm-13.244.516l-.258-.172-.258-.258.172-.172.258.172.086-.258.086-.43.257-.103.001.017.086.516-.43.086-.086.258.086.344zm-3.01-.43h-.43v-.516l.344.086.086.43zm3.956 1.462l-.172-.086v-.258l-.086-.258.172-.086.172.344-.086.344zm-17.888 1.978l-.258-.258.258-.086.086-.172.344-.258.086-.344.172-.172.172.086-.172.688-.688.516zm30.014-.344l-.43-.086.086-.43.344.086v.43zm-.086 1.548l.086-.516h.258v.43l-.344.086zm-29.498.946l-.344-.086v-.43l-.172-.258-.086.086h-.086l.086-.086.086-.086h.086l.602.258.774-.172.172-.043-.086.13-.688.343-.344.344zm32.078.258l-.172-.086-.258-.172.086-.172.258.086.172.172-.086.172zm-31.304.172l-.086-.43h.344v.344l-.258.086zm.301 1.29l-.215-.086-.344-.688v-.258l.086.172v.172l.344.086.168.447-.039.155zm-.903-.086h-.43l.086-.344.344-.086v.43zm.258 1.032h-.172l-.172-.258-.086-.344.086-.172.258.172.086.172v.43zm.86 2.236l-.172-.086.172-.43.172-.774-.86-.258-.43-.086v-.086l.946-.43.946-.258v.258l-.086.344-.258-.172-.086.172v.086l.258.43v.602l-.344.43-.258.258zm28.81-1.29h-.344l.086-.344h.258v.344zm-29.928 2.58l-.086-.344-.086-.602.172-.602.172-.086.086.774.086.774-.344.086zm76.024 6.278l1.72-.344h1.72l1.118.172-.602-1.548-.946-2.15-.43-1.548-.43-1.978-.258-1.376-.43-1.462-.172-1.548-.344-1.548-.602-2.838-.172-1.634-.258-.688-.086-.774-.172-1.118-.43-1.892-.344-1.29-.086-1.032-.344-.946-.172-1.634-.43-1.376-.258-1.376-.43-2.15-.258-2.322-.172-1.118-.344-1.29v-2.494l.258-.688v-.602l.258-.516v-.774h-.688l-1.548-.086-2.064.258-1.376-.258-1.548.172-1.462.086-1.118-.086-.946-.086-.688.172-.946-.258-.86.172-1.204-.258-2.064.258-1.548-.172-1.032.258-1.72-.258-1.376.086v.688l.344 1.032v1.032l.172.86.258 1.29-.258 1.118-.172.86-.43 1.548-.172 1.72-.344 1.032-.172 1.032-.258 1.892-.602 2.666-.344 2.322-.086.946-.43.774-.086 1.548-.516 1.978-.258 1.204-.258 1.548-.086.86-.43 1.634-.516 2.408-.516 2.236-.344 2.064-.516 1.118v.602l-.516.946-.516 1.634-.43.946.258.258.43-.258.516.258.602-.172h.86l.86.086h1.548l1.118.086.516-.172.946.086h1.204l.86-.086.516.172.602-.172 1.032.172 1.72-.172V79.39l.086-.774-.172-.688.086-.43-.172-.602.172-1.634.172-1.29.258-.688v-.86l.258-.86.602.086.602-.172.602.086.602-.172 1.806.086h2.752l1.806.086.086.688.258.774.086.774.172.86v.774l.086 1.548v2.322l-.172 1.634 1.376-.172 1.376.258 1.204-.086.86-.172h1.892l2.494.258zm-18.146-37.84l-.258-.086v-.086l.172-.172.344.172v.086l-.258.086zm1.376 1.72l-.086-.344.172-.43h-.344l.172-.43-.344-.172.258-.172.172.086.688.602.688.258-.086.258-.774.086-.516.258zm6.192-.774l-.086-.172-.258-.172v-.43l.344.172h.086l.086.086-.086.344-.086.172zm-8.686 1.548l-.172-.258-.086-.43.086-.258v-.086l-.602.086-.602-.086v.086l.172.172v.344l-.172.344-.258-.43-.086-.602.602-.172.43-.602.344-.172-.086.43.774.43-.172.688-.172.516zm10.492-1.462l-.258-.086v-.258l.344-.086-.086.43zm-2.408.774l-.43-.258v-.344l-.086-.344.516-.086.086.43.172.086h.258l-.086.086-.086-.086-.086.172-.258.344zm-5.934.086l-.516-.086-.258-.516.086-.086.43.172.258.344v.172zm7.396 1.376l-.43-.344-.344.344-.086-.172.086-.344-.086-.688.43-.086.172-.172.172-.086h.086v.43l-.086.344.344.172v.516l-.258.086zm-9.03 2.666l-.172-.086-.258-.086v-.688l.344-.516-.086-.516-.258-.602-.516-.344-.516.086-.086.086.172.258v.43l-.43-.086h-.516l-.086-.172-.258-.258v-.344l.172-.43.43.43.43-.172.086-.172.516.172.344-.172.602.086.43-.43-.086-.43.43-.172.258.43.172.258.258-.086.86-.172h.774l-.516.172.086.086h-.086l-.774.602-.602-.344-.344.086.172.258v.43l-.344.086h-.086l.086-.086.086-.258-.258-.172-.602.086.258.774.172.516-.344.688v.688l.086.086zm11.18-2.838l-.086-.086v-.43l.172-.43.172.172v.516l-.258.258zm-1.204.602l-.172-.086.172-.344.344-.516h.086l.086.602-.516.344zm-.258 2.666h-.344l-.688-.602.258-.86.344-.602-.172-.516-.086-.172.344.086.172.602.086.602-.258.258-.172.688.516.516zm-10.664-2.15l-.086-.344.43-.086v.258l-.344.172zm7.052 15.566h-1.978l-1.462-.086h-.774l.086-1.118.172-1.462.258-.86v-.516l.344-1.548.602-2.666.344-2.666.43-1.72-.086-.43.258-.688.258-1.29v-.688l.172-.086v1.032l.516 2.236.344 1.376.086 1.29.172 1.032.43 2.408.344 2.322.43 2.322.43 1.72-1.376.086zm-7.138-14.276h-.086l-.516-.602-.602-.516.172-.258.344.086.516.774.172.516zm12.384.344h-.344l-.172-.258-.43-.086.258-.258.172-.43.688.172v.516l-.172.344zm-12.384.516l-.258-.172-.258.172-.258-.516.43-.086.43.172-.086.43zm.43.602l-.086-.172.258-.172.086-.43.172-.172.258.344-.172.43-.516.172zm11.696.43l-.172-.258-.086-.258.516-.086.43.172-.086.258-.43-.172-.172.344zm-13.416 4.644h-.258l-.086-.43.43.086-.086.344zm.602 1.204h-.43l.086-.43.602-.086.172.086.172.172v.172h-.172l-.344-.086-.086.172zm-.946 1.204l-.172-.172v-.344h.086l.172.258.086.172-.172.086zm14.62 1.72l-.258-.172.172-.172.43-.086.086.258-.172.086-.258.086zm.344 1.72l-.172-.258-.258-.258.516.086-.086.43zm-13.416 1.72v-.344l.172-.258.172.344-.344.258zm14.276 4.042l-.258-.086.344-.43-.43-.344-.172-.258.43-.086-.086-.172.086-.172.172-.43.086-.602v.43l.086-.086.086.43.43.344v.344l-.43-.172-.258.086-.172.172.516.258.602-.172v.086l-.344.516-.688.344zm-14.448-.344l-.172-.258.086-.43.258-.688.516.086v.172l-.516.258v.602l-.172.258zm10.922-.516h-.258l-.258-.43.172-.258.172.086.086.344.086.258zm-9.202.344l-.344-.086v-.344l.172-.344.086-.086v.516l.086.344zm8.428.258h-.086l-.086-.172-.172-.258h.344l.086.172-.086.258zm-4.988.774l-.172-.172-.258.086-.172-.086.258-.43h.258v.344l.172.086-.086.172zm10.234.688h-.43v-.258h.43v.258zm-1.72 1.29h-.086l-.172-.688h.172l.086.172v.516zm2.494 1.462h-.43l.086-.344h.344v.344zm-19.952.43l-.172-.086-.086-.258v-.344l.172.086.172.258.086.258-.172.086zm19.694 2.666l-.172-.516-.172-.43.172-.086-.086-.172-.258-.172.086-.602h.258l.43.172.516.344-.172.344h-.344l-.172.086v.43l.172.516-.258.086zm-20.898-.172l-.086-.43-.344-.516.258-.258.344.516.172.516-.086.086-.258.086zm20.038.774l-.258-.086V73.8h.602l.086.344-.172.172-.258.172zm1.118 1.032l-.086-.086-.086-.258v-.258l.086-.086.172.172v.258l-.086.258zm16.942 5.504l.43-.258.516.258 1.462-.086 1.806-.086 1.548.086h1.634l.946.086 1.204-.258 1.29.172.258-.258-.258-.516-.172-1.29-.172-1.204-.172-.774-.344-.946.172-.688-.172-.688v-1.548l.172-.86v-1.634l-.172-1.376.086-.946.086-1.032-.172-.774.172-.43-.258-.688.172-1.978v-2.15l.086-.946-.258-.688.086-1.118.086-.86-.086-.602h.172l.172.516.688 1.892.602.774.172.602.774 1.29.602 1.376.86 1.376.258.86.774 1.376.344 1.204.774 1.548 1.376 2.666 1.032 2.064.688 1.462.344 1.032.602.774.688 1.634.602 1.29.43.344.516-.258.602.258.602-.258.86.172h1.118l1.548.086h1.892l1.376-.344.946.258h.774l.086-.602-.172-1.376.172-2.236-.086-1.204.086-.688v-1.118l-.172-1.204.086-.774-.086-.43.258-1.118-.258-1.72-.086-1.548.344-1.118-.258-.946.258-1.548v-1.72l-.258-1.548.086-.946.086-1.806-.172-2.064.172-1.118-.258-1.032.258-.946-.172-1.118.086-.86.086-.602-.258-.86.086-1.29.086-1.118.086-.86v-1.118l.086-1.72.43-1.118.172-1.118.43-1.032-.688-.258h-11.782l-.344.172.172.946.344.946.172 1.376.43 1.376-.172.688.172.688-.086.516.086.602.086 1.204v1.978l-.258 1.032.258.602v1.978l-.086 3.01.086 1.978-.172.43h-.344l-.344-.602-.43-1.204-.43-.688-.172-.516-.516-1.118-1.118-2.236-.688-1.29-.516-.86-.516-1.548-.602-1.204-1.118-1.892-.516-1.462-.602-.946-.43-1.118-.516-1.118-.258-.774-.602-.774-1.806-.172h-10.578l-.688-.172-.43.43.43 1.462.344 1.118.172 1.462.258.516-.086 1.376.086 1.892v1.376l-.086 1.376-.086 1.892v2.494l.258 1.548-.258.86v1.032l.086.946v1.72l.172 1.29-.258.516v5.16l.086 1.29v.774l.172.516-.258.688v5.504l-.258.86-.086.774-.258 1.118-.258 1.376.43.774h1.032zm26.832-32.25l-.258-.086v-.172l.172.086.172-.086v-.258l.344.086v.258l-.43.172zm-2.236 18.49l-.258-.086-.086-.344h.344v.43zm-18.662 8.256h-.258v-.43l.344.086-.086.344zm57.19 5.504l2.064-.172 1.548-1.548.602-.688.688-.688.774-.688 1.204-1.29 1.204-1.032-.43-1.892-.344-1.978-.172-1.032v-.946l.086-.688-.086-.602.172-.43-.258-.688v-1.978l.258-1.462-.258-.516v-1.892l.172-1.892-.172-1.634v-1.032l.258-1.29-.258-.774v-3.096l.086-1.806.086-1.72-.086-1.032.086-.602-.172-.86.258-1.376.086-1.118.258-.86.086-1.204.43-.688v-.344l-.172-.43-.946.172-1.72-.172h-1.032l-1.376.258-1.29-.172-1.376.172-1.72-.258-1.548.086h-.946l-.86-.258-.172.172.086.86.344 1.204.344 1.462.344 1.72-.172 1.032.258.516-.086 1.72v5.16l-.086 1.892.086 1.29v3.096l.086 2.322-.258 1.29.258.516-.086 1.978-.086 2.58-1.548 2.15-1.806.43-1.634-.258-1.032-.774-.86-1.29v-.602l-.086-.602-.086-.774.086-.86.086-1.032-.258-.516v-.258l.258-1.032-.258-1.118.258-.946-.172-1.118.086-.774v-1.634l-.086-.688.086-1.118v-1.118l-.172-1.634V51.01l.258-1.548-.086-1.032-.086-.688.172-1.032-.172-1.032.086-.946-.086-.688.344-1.634.43-1.376v-.946l.43-.86-.688-.086h-.86l-.946-.086-.86.172-.774-.172h-1.634l-1.204.258-.602-.258-1.548.086h-1.634l-.774.086-.602-.086h-1.032l.172 1.032.258 1.376.344 1.978.172 2.666v24.424l-.43 1.204-.258 1.634-.344 1.118.602.86.774.602 2.15 2.322 1.978 2.064.516.516 1.376-.086h1.376l.86.086.946.086 1.204-.086 1.892.086h9.374zm3.44-31.648l-.086-.086.086-.258.172-.172.172.086-.086.258-.258.172zm-.344 1.806h-.086l-.086-.258-.086-.172-.086.172h-.172v-.516l.344.086.258.344-.086.344zm-.774 1.032l-.516-.172-.258-.43.516.086.258.516zm-17.028 17.974l-.086-.344.258-.344.172.086-.086.344-.258.258zm1.204 4.3h-.172v-.258l.086-.172h.172l.086.258-.172.172zm.688.86h-.258v-.344l.172-.344.172.086v.43l-.086.172zm-1.978.086h-.43v-.43h.43v.43zm3.956.086l-.43-.086-.086-.344.43.086.086.344zm5.418.516l-.258-.086.086-.344.172-.258h.086l.086.344.086.258-.258.086zm-4.988.602l-.258-.344-.258-.258.172-.172.344.086.258.43-.258.258zm2.408.172l-.43-.086-.172-.344h.43l.172.43zm-5.848.688l-.516-.258.086-.516.43-.086.516-.172.172.516-.344.258.086.086-.43.172zm1.978-.43v-.172l.344-.258.344-.086-.258.258-.43.258zm69.058 3.956l.774-.258-.344-.774-.172-1.462-.43-1.376-.258-1.032.086-1.032-.086-1.806v-3.526l.086-2.064-.344-1.032.258-.688v-1.892l-.086-.774.086-1.462V58.32l.086-1.118-.258-1.29.172-.86-.086-1.032.172-.86-.086-1.462-.086-1.032.172-.86-.086-1.806.086-1.29-.086-1.29.172-2.666.688-2.408.258-1.29h-4.558l-1.118.258-.516-.258h-6.45l-.86-.086-.258.86-.43.86-.43 1.204-.688 1.72-.602.946-.172.774-.774 1.29-.344 1.118-.344.516-.516 1.462-.946 1.806-.688 1.892-.774 1.548-.43 1.29-.344.774-.258-.086-.258-.946-1.032-2.064-.86-1.892-.688-1.892-.774-1.548-.344-1.29-.602-.774-.172-1.032-.86-1.462-.688-1.72-.774-1.892-.688-1.29-1.118-.086h-3.526l-1.118.086-1.032-.086h-5.848l-.602-.086-.258.344.258.602.172 1.118.344 1.29.43 1.032v6.708l.086.86-.172.946.086 1.032v2.408l.086 1.118-.086 1.118-.086 1.376v1.462l.086 2.15v11.954l-.086 2.064-.43 1.462-.344 1.548-.344 1.376h1.032l.43-.172.688.258 1.118-.086 1.376-.172h3.44l.43.258.774-.258 1.032.086h.774l.946.086.688.086.172-.172-.258-.86-.516-1.29v-.86l-.258-.86-.172-1.29v-1.376l-.258-.774.258-.86v-4.3l-.086-1.462.086-.774-.258-.774.258-.946v-4.902l-.172-.86.43-.086v.516l.516 1.204.774 2.064.946 1.72.688 1.462.516 1.462.774 1.29.43 1.29.688 1.634.774 1.29.774 1.892.688 1.548.602.086h1.806l.86-.086h.516l.43-1.118 1.032-2.064.516-1.29.602-1.634.602-.688.43-1.462.602-1.032.086-.516.774-1.462.774-1.548.43-1.376 1.032-1.978.344-.946h.172v2.494l-.086.86.086 1.806v10.406l-.086 1.806-.516 1.72-.258 2.064-.344.946.516-.086h.602l1.118.172 1.118-.086h.86l.86.086.774-.086 1.032-.172 1.29.258.946-.258h1.548l1.462.258zm-6.45-30.1h-.258l-.258-.172v-.258l.344.086.172.344zm-.172 2.15h-.086l-.172-.86.172-.086.258.086-.172.86zm-3.268 1.892l-.43-.086.258-.344.344.172-.172.258zm-16.684 1.548l-.172-.172-.344-.172v-.172h.344l.086.344.086.086.197-.049-.025.05-.172.085zm3.182 2.838h-.344l-.172-.43.086-.258.258.172.172.43h.086l-.086.086zm-11.61.774l-.344-.172v-.258l-.172-.344.258-.086.172.344.086.258v.258zm-2.236.086h-.258v-.258l.172-.086.258.086.172.172-.344.086zm30.186.43l-.172-.086.172-.43.172-.086v.258l-.172.344zm-12.814 1.29h-.086l-.172-.602-.516-.344.086-.172.344-.086.258.516.172.43-.086.258zm-.946.516l-.516-.086-.344-.43.344-.43-.086-.258v-.258l.172.172-.086.172.172.086.258.086-.258.258-.086.344h.516l.344-.138v.138l-.43.344zm14.62.43v-.344l-.172-.516.086-.172.086.086-.086.258.172.086.258.172-.172.344-.172.086zm-13.244.516l-.258-.172-.258-.258.172-.172.258.172.086-.258.086-.43.258-.103v.017l.086.516-.43.086-.086.258.086.344zm-3.01-.43h-.43v-.516l.344.086.086.43zm3.956 1.462l-.172-.086v-.258l-.086-.258.172-.086.172.344-.086.344zm-17.888 1.978l-.258-.258.258-.086.086-.172.344-.258.086-.344.172-.172.172.086-.172.688-.688.516zm30.014-.344l-.43-.086.086-.43.344.086v.43zm-.086 1.548l.086-.516h.258v.43l-.344.086zm-29.498.946l-.344-.086v-.43l-.172-.258-.086.086h-.086l.172-.172h.086l.602.258.774-.172.172-.043-.086.13-.688.343-.344.344zm32.078.258l-.172-.086-.258-.172.086-.172.258.086.172.172-.086.172zm-31.304.172l-.086-.43h.344v.344l-.258.086zm.301 1.29l-.215-.086-.344-.688v-.258l.086.172v.172l.344.086.168.447-.039.155zm-.903-.086h-.43l.086-.344.344-.086v.43zm.258 1.032h-.172l-.172-.258-.086-.344.086-.172.258.172.086.172v.43zm.86 2.236l-.172-.086.172-.43.172-.774-.86-.258-.43-.086v-.086l.946-.43.946-.258v.258l-.086.344-.258-.172-.086.172v.086l.258.43v.602l-.344.43-.258.258zm28.81-1.29h-.344l.086-.344h.258v.344zm-29.928 2.58l-.086-.344-.086-.602.172-.602.172-.086.172 1.548-.344.086zm54.696 6.278l1.462-.172-.258-1.462-.602-1.806-.344-.86v-.774l.258-.86-.258-.602v-3.526l.172-.688-.172-1.376v-2.236l.172-1.204-.086-.344.086-.602v-.688l-.086-1.806.086-1.806-.172-.688.258-1.032-.086-2.064v-1.376l-.086-1.376-.086-1.806.086-.86v-.688l.086-.86-.172-1.376.258-1.032-.258-.602v-.86l.086-.86.086-.688-.086-.602.344-.946.43-1.806.43-1.462-.43-.344-.344.258h-11.524l-.344-.258-.258.258.172.43.172.86.344 1.548.602 1.462-.172 1.032v2.924l.172 1.548-.172.946.258.688-.086 1.376-.258 1.376v1.032l.172.946-.086 1.032.172.86-.086.43v1.806l.086.516-.172.86v1.978l.086 2.408.086 1.032-.258 1.032.258 2.236-.172 1.462.258.688-.086 1.892-.172 1.978v1.118l-.172.602-.172.516-.086.774-.344 1.204-.258 1.204 1.118.086 1.29-.172 1.978.086 1.892.086 1.032-.172.516.172.688-.258.86.258.516-.172 1.376.172zm-5.934-34.83l.086-.172-.258-.43.344-.258.369.061-.025.025h.052l-.138.344-.43.43zm.602.086l.086-.344.258-.172.086.43-.43.086zm.688 3.354l-.602-.344-.344-.43.258-.43.516-.344.069-.102-.241.962.344.602v.086zm1.032-.86l-.086-.086.172-.43.258-.258.344.086-.258.43-.43.258zm-1.892 5.59h-.43l.086-.344h.344v.344zm.602 4.128l-.258-.344-.344.086-.172-.258.172-.258.43.172.344-.43.344.086-.086.43-.43.516zm.344 7.568h-.258l-.43-.344.43-.43.258.43.086.258-.086.086zm-.86.602l-.172-.258-.086-.344.086-.086.258.258v.344l-.086.086zm.172 5.59v-.516h.344l-.086.344-.258.172zm1.376.86h-.774l.172-.258.43-.258.401.401-.229.115zm31.734 7.912l1.376-.172 1.032.086.688.086.258-.344-.344-.688-.086-.86-.344-1.032v-1.032l-.258-.688-.086-.774v-1.72l.172-1.376-.258-.43v-7.396l.258-1.376-.172-2.322-.086-1.204.258-1.462-.258-.86v-1.204l.086-1.118-.086-1.978v-1.462l.086-1.806.774.086 1.032-.086 1.548.172 1.462-.172.688.086 1.462.086 2.236.774 1.032.516 1.118.688.086-.086.086-.344-.43-1.634-.43-1.462.086-.774-.344-.946-.258-1.204-.258-1.806-.516-1.634-.258-1.634-.172-1.376h-12.04l-.43.172-.946-.258-1.978.086-12.298-.086-.516.172-.258.86-.258 1.204-.172 1.29-.344 1.376-.43 1.376-.172 1.462-.43 2.236-.258 1.376-.344 1.548.172.086 1.462-.86 1.548-.688 1.032-.258.86-.43.43.258h3.354l1.032-.086.86-.172.602.172.172.86-.258 1.204.258 1.462v1.29l-.086.946.086.516-.258.43v1.634l.258 1.29-.172.344v3.268l.258.774-.258.946-.086 1.204.258 1.978v1.204l-.258 1.72.086 1.118v.602l.086.344-.172.688.258 1.032-.086.688.086.43-.344 1.462-.602 2.236-.258 1.29.516-.086.946.172.688-.258 1.032.172 1.376-.086 1.29.086 1.29-.172 1.032.258h1.204zm-254.56 50l1.634-.258 1.29.172.688-.172.688.172 1.032-.258 1.118.258.86-.086h.946l.86.086h1.29l.946-.172 1.118.172h1.118l1.204-.172.688.172.688-.086.172-.86.172-1.118.344-1.462.344-1.118.086-1.462.344-1.032.086-1.548.43-1.376.344-1.634.344-1.204-.086-.086-.688.43-2.15.86-1.892.516-1.032.258-.688-.258-.946.258-1.376-.258-1.806.258-1.204-.172-1.978-.774-.946-1.72-.43-2.322.086-1.548-.086-.688v-1.806l.086-1.892v-1.118l-.086-1.29.258-.946-.172-1.376-.086-1.29.688-1.548 1.462-1.032.516-.43 1.118-.086h2.838l1.29-.172.946.172 1.462-.172 2.064.43 1.634.688 1.032.516-.086-1.118-.258-1.462-.344-.86-.172-1.032-.258-.946-.086-1.29-.344-1.462-.086-.946-.43-1.376-.43-1.462-.43-.43-.688.086-.688-.086h-7.568l-.86.086-.774-.086h-7.138l-.43.602-1.29 1.29-3.44 3.44-.774.602.602 2.064.258 1.72.258.774-.086 1.118.258.688-.258.688.172.688-.172 1.72.258 2.064-.258 1.032v1.118l.172.946-.258.946.258 1.032-.086.688-.086 1.29v1.978l.258 1.376-.258 1.376.086 1.462-.086.774-.344 1.204-.258 1.462-.258 1.118.172.86 1.118 1.204 1.204 1.032.774.86.602.688.602.344.602.774.516.43.086.43.86-.172 1.204.258zm-1.032-20.726h-.43l-.258-.43.172-.172.344.086.258.258-.086.258zm.172 1.032l-.344-.086-.43-.172v-.086l.344-.172.43.172v.344zm-1.599 1.261l-.379-.143-.43-.344.43-.43.43.516-.051.401zm.309.115l-.172-.064v-.538l.258-.43h.86l-.086.086-.086.172-.086.172-.516.258-.172.344zm1.032.774h-.774l-.344-.172.344-.172.516.258.172-.344h.258l-.172.43zm.602.86h-.43l-.258-.172.258-.258.43.172v.258zm.316 1.835l.028-.029h-.086l.086-.258.086-.172.258-.128v.3l-.086.172-.286.115zm-1.606.917l-.258-.43.344-.516.172-.258.172.086v.172l-.258.43.086.43-.258.086zm-1.29 1.462l-.258-.086.086-.086.258-.086-.258-.258v-.258l.602-.258.516.344v.172l-.516.172-.43.344zm3.354 0l-.516-.172-.086-.602-.172.086h-.086l.086-.086.086-.086h.086l.086.172h.258l.258.258v.43zm1.204 4.902l-.258-.172-.172-.258v-.086l.086.172.172-.172.172-.516-.086-.344-.516-.258h-.516l-.086-.258.602-.172.516-.172-.086-.344-.258-.172.086-.344-.344-.43-.172-.43v-.258l.086.086v.258l.344.086.258.43.172.43.602.344.086.774.172.172.258-.344h.43v.688l-.43.602-.344.258-.086.172h-.172v-.172h-.172l-.344.43zm-3.44-3.698v-.344l.43-.086-.086.344-.344.086zm2.236.43h-.43l.086-.43h.344v.43zm.258 1.032l-.344-.344-.172-.43h.344l.172.258v.516zm-3.182 0l-.086-.258.172-.43.43.086-.172.43-.344.172zm8.6 4.128l-.43-.258-.344-.086-.086-.344-.774.344-.774.344-.086-.086.172-.344-.086-.344-.258-.258-.258.086-.172.258h-.172l.172-.774.516-.516-.086-.258.172-.172.344.344.344-.086.086-.602-.344-.344-.258-.258-.344-.258.172-.172.43.344.086.344h.516l.258.774.344.344.258.43.344.602.086.516.258.344-.086.086zm-7.396-2.838l-.086-.688.516-.086.086.172-.258.258-.172.258-.086.086zm1.032.43l-.516-.086.086-.344.43-.086v.516zm1.032 1.978l-.688-.172-.258-.258-.258-.172.172-.172.344-.172.258-.43.172-.43.344.086-.086.602.086.602-.086.516zm5.59-1.376h-.43l-.172-.172.172-.086h.258l.172.086v.172zm2.58.602l-.344-.086-.086-.258v-.258l.086-.172h.172l.086.258.172.344-.086.172zm-2.58.344l-.086-.172.287-.287.143-.057.086.258-.43.258zm2.666.43h-.344l-.086-.344h.344l.086.344zm1.204.86h-.43l-.344-.172.086-.172.344.086.43-.086.258-.172v.344l-.344.172zm-6.106.516l-.086-.086.172-.43.774-.344h.602v.086l-.774.258-.688.516zm-1.032.172l-.43-.258.01-.042.162-.216.344-.172.172.43-.258.258zm44.892 4.472l1.204-.086h.946l.516-.172.86-.86 1.118-1.032 1.118-1.032 1.118-1.118.946-.946.602-.602.172-.774-.344-1.462-.344-1.634-.172-1.806-.086-1.806-.086-1.376v-1.376l.086-1.032.086-.86-.086-1.032v-6.966l.086-1.892v-1.892l.172-2.236.344-2.15.172-1.376-.516-.946-1.032-1.032-1.118-1.29-1.376-1.376-1.204-1.118-1.548-.602-1.548-.086-.86.086-.602.086-.946-.086H97.47l-.946.086-.86-.086h-1.548l-1.634.086-.86-.086-.86-.086-1.204.086-1.118.086-2.666-.086-1.204.43-1.032.946-.946.946-.774.86-.946.946-1.118 1.032-.688.946v1.376l.344 2.064.258 1.634.086 1.548.172 1.548v.946l-.172.86.086 1.118v2.322l-.086 1.548v9.202l-.172 1.978-.172.946-.258.774-.258 1.118.602 1.204 2.494 2.666 2.494 2.494.516.344.774-.086h.774l.946.086 1.72-.086 2.236.086h1.806l1.29-.086 1.29.086h1.118l.946.086.774-.086h1.118l1.376.086zM94.89 94.215l-.086-.258.086-.43.172.086.43.258.172.172h-.172l-.344.086-.258.086zm-7.826 1.118v-.258l.172-.344.258-.086v.258l-.258.258-.172.172zm2.666 1.118l-.172-.258h.344l.219.055.039.117-.43.086zm-4.902 1.032l-.172-.172.086-.172.172-.344.258-.258.258.172v.258l-.344.344-.258.172zm-1.032.344l-.086-.258.258-.43.258-.086-.086.258-.172.43-.172.086zm15.48.43v-.172l-.086-.258v-.258l.344-.172.172.344-.172.43-.258.086zM85 98.343l-.344-.086.258-.258.516-.086.258.172-.172.172-.516.086zm19.092.086l-.344-.086-.249-.142.077-.116h.344l.172.344zm-9.288 22.274l-1.29-.086-1.032-.43-.946-1.204-.43-1.892-.086-1.376v-.516l.086-.516-.086-.946.086-1.118-.086-.86-.086-.688v-1.29l.086-1.29.086-.946v-2.322l-.086-.946v-.602l.086-.688.086-1.462.602-1.548 1.204-.946 1.462-.344 1.462.516 1.204 1.29.344 1.032.172.688v.602l-.086.774v4.214l-.086 1.118.086.86.086.688v1.032l-.086 1.72v4.558l-.344 1.204-.516.774-.602.516-1.29.43zM84.656 99.461h-.344l-.172-.172.172-.172.344.172.086.052v.034l-.086.086zm16.598.602v-.258l.344-.172h.086v.086l-.258.258-.086.258-.086-.172zm-18.318 1.634v-.172l.172-.43.258-.172v.344l-.258.344-.172.086zm2.322.43l.086-.258.344-.344.344-.086-.172.344-.43.258-.172.086zm-1.376.602l-.042-.01-.058-.043.014-.033v-.344l-.172-.172.172-.086.344-.086v.602l-.258.172zm18.035.738l-.405-.136.086-.258.172-.516.086-.516h.172l.172.258.172.258-.086.344-.344.516-.025.05zm-17.261-.566l-.086-.258-.086-.172.086-.258.086-.086.086.086.086.258-.086.344-.086.086zm2.838.516l-.086-.258.086-.516.172-.172.086.258-.086.516-.172.172zm-1.978.172l-.344-.086-.086-.344.344-.258.172.086v.344l-.086.258zm16.942.172l-.086-.172-.344-.086-.04-.012.212-.16h.43l.086.344-.258.086zm-16.855 1.291h-.001l.086-.173v-.172l-.096.334-.162-.162-.172-.086v-.172l.344-.258.344.258-.172.344-.171.087zm-.087.257l-.258.344-.172-.172.172-.258.282.001-.024.085zm16.254.774h-.43l.344-.258.516-.344.258-.258-.172.43-.516.43zm-17.716 2.58l-.258-.258v-.258l.258-.086.344.172.086-.086-.172-.86-.258-.258-.172-.172.172-.086.258.172.086.172.258-.258.086.344-.086.774-.344.602-.258.086zm2.064 3.698l-.43-.086-.258-.43.344-.258.258.172.086.344v.258zm17.2 4.988l-.172-.086v-.258l.086-.086h.172l.086.172-.172.258zm-16.942 2.666l-.172-.086.086-.086.172-.086v-.086l.086-.086h.258l.172.086-.086.086-.258.086-.258.172zm16.082.516l-.258-.155-.086-.103v-.258l.344-.086.258.344-.258.258zm-15.136 4.214l-.086-.258-.258-.172-.43.172-.258.172v-.946l.086-.688v-.516l.344-.86v-.516l.258-.602.258-.258-.086.344v.344h.43l.172.086.172.086.172.258.258.258h.344l.086-.086-.086.258.164.22-.078-.048-.43-.086-.43.172-.43.086-.086.43-.258.258-.344.172.086.516.516.258h.516l.043.044-.129.128-.344.43-.172.344zm16.77-3.268l-.43-.086v-.258l.258.086.516-.086h.172l-.086.086-.43.258zm-18.662.774l-.172-.086v-.43l.172-.172.172.172h.258l.026-.006-.198.264-.258.258zm16.254 1.634l-.258-.172-.516-.688-.43-.43v-.172l.258.086.602.43.43.172v-.344l.086-.344h.172l.172.172h.344l.43.172-.086.516-.602.43-.344.086-.258.086zm-13.76-.602h-.258l-.086-.258.086-.344.172-.086.344.086.258.086-.172.344-.344.172zm2.408.826l-.344-.482-.086-.43.344.258.086.43v.224zm7.224.378h-.258l-.43-.172v-.172l.516-.172.43.258v.172l-.258.086zm-9.804 2.58l.258-.602.258-.86.258-.344v.774l.258.086.172-.516-.086-.688-.258-.516v-.172l.086.172.258.258h.344v-.086l.086.172.258.172.172.086-.258.086-.258.344.258.172.172.344-.516.43-.602.172-.516.43-.344.086zm13.072-2.236h-.43l-.172-.086.172-.172h.516l.086.172-.172.086zm-1.29 1.118h-.172l-.43-.086-.172-.258.172-.344.258.086.258.086v.172l.086.344zm-12.384.344h-.258v-.172l.258-.344.344-.172.172.172-.172.344-.344.172zm3.354-.258h-.344l.086-.258.516-.086.43.172-.172.086-.516.086zm.602.688l-.258-.258v-.258l.258.086.172.344-.172.086zm4.558.602l-.086-.086-.172-.688.086.172.086-.086.086.172.086.344-.086.172zm-10.9-27.97l.322.192.086.258.172.258.43-.086.258-.258h.086l-.344.516-.516.172-.43-.086-.344.086-.086-.086.172-.086.172-.172v-.688l.022-.02zm-.993 3.347l.069.017.128.096-.086.344v.258l.172.516-.43.258-.258-.258.172-.688.233-.543zm35.457 28.321l2.322-.086 1.376-.172 2.15.086 1.29.086h.86l.86-.086.946.086-.43-1.376-.344-1.72-.258-1.634.086-1.634-.258-.774.172-1.032-.172-1.978v-1.032l.172-1.462-.172-1.204.172-1.548-.172-1.204.172-.774.946.172 1.634-.086 1.29.172.43-.086.688.086 1.204.086 2.064.43 1.806.516-.086-.946.172-.946-.258-.774.258-.774v-4.988l-.086-1.376-1.376.516-1.978.344-.86.344h-2.924l-1.806.086h-1.29l.172-1.032-.172-1.29.172-1.376-.172-1.72.172-1.032.602.172 1.032-.086.516.086 1.376-.258 1.806.258 1.032-.172.774.086.43-.172.602.258.688-.172h.86l1.634.344 1.118.258 1.118.43 1.118.602.172-.172v-.172l-.258-.86-.344-1.548-.086-1.29-.172-.946-.344-.602-.172-1.376-.086-1.376-.43-1.29-.258-1.118-.43-1.548-1.72-.086H116.82l-.43.086.086.688.344 1.462.43 1.548v1.978l.258 1.548-.172.516.172.86-.258 1.032.258.688v1.032l-.172 1.376.086 1.548.086 1.29-.086 1.204.086 2.064-.086 1.978-.086.688.172 1.376-.172 1.548.172 1.204v1.978l-.172.688.172.86-.086.86-.172 1.204.258 1.462.086 1.978-.086 1.892-.258 1.376-.258 1.204-.344.688v.86l-.344.86.172.258.946-.258 1.806.258zm3.612-34.658h-.086l-.086-.258v-.258l.172-.258h.344l.086.258-.344.086-.086.43zm.086 2.15h-.516l-.057-.17-.029-.174v-.02l.086-.066.344-.086.172.516zm1.118.43l-.258-.086.086-.344.258-.086.086.172-.172.344zm-1.892 3.698v-.688l.602-.43.086.172-.43.344-.172.516-.086.086zm1.376 1.892l.172-.344.344-.172v.086l-.172.344-.344.086zm-.774 4.816h-.344l-.172-.172.086-.172.258.086h.344v.172l-.172.086zm-.344 7.138h-.258l-.172-.172v-.258h.172l.172.258.086.172zm-.115-18.317l.058.172.075.454.24.32-.194-.049.022.134v.344l-.086-.43-.023-.069-.063-.017-.774-.688-.086-.602h.086l.172.344.344.258.229-.17zm30.473 32.851l2.322-.086 1.376-.172 2.15.086 1.29.086h.86l.86-.086.946.086-.43-1.376-.344-1.72-.258-1.634.086-1.634-.258-.774.172-1.032-.172-1.978v-1.032l.172-1.462-.172-1.204.172-1.548-.172-1.204.172-.774.946.172 1.634-.086 1.29.172.43-.086.688.086 1.204.086 2.064.43 1.806.516-.086-.946.172-.946-.258-.774.258-.774v-4.988l-.086-1.376-1.376.516-1.978.344-.86.344h-2.924l-1.806.086h-1.29l.172-1.032-.172-1.29.172-1.376-.172-1.72.172-1.032.602.172 1.032-.086.516.086 1.376-.258 1.806.258 1.032-.172.774.086.43-.172.602.258.688-.172h.86l1.634.344 1.118.258 1.118.43 1.118.602.172-.172v-.172l-.258-.86-.344-1.548-.086-1.29-.172-.946-.344-.602-.172-1.376-.086-1.376-.43-1.29-.258-1.118-.43-1.548-1.72-.086H150.36l-.43.086.086.688.344 1.462.43 1.548v1.978l.258 1.548-.172.516.172.86-.258 1.032.258.688v1.032l-.172 1.376.086 1.548.086 1.29-.086 1.204.086 2.064-.086 1.978-.086.688.172 1.376-.172 1.548.172 1.204v1.978l-.172.688.172.86-.086.86-.172 1.204.258 1.462.086 1.978-.086 1.892-.258 1.376-.258 1.204-.344.688v.86l-.344.86.172.258.946-.258 1.806.258zm3.612-34.658h-.086l-.086-.258v-.258l.172-.258h.344l.086.258-.344.086-.086.43zm.086 2.15h-.516l-.057-.17-.029-.174v-.02l.086-.066.344-.086.172.516zm1.118.43l-.258-.086.086-.344.258-.086.086.172-.172.344zm-1.892 3.698v-.688l.602-.43.086.172-.43.344-.172.516-.086.086zm1.376 1.892l.172-.344.344-.172v.086l-.172.344-.344.086zm-.774 4.816h-.344l-.172-.172.086-.172.258.086h.344v.172l-.172.086zm-.344 7.138h-.258l-.172-.172v-.258h.172l.172.258.086.172zm-.115-18.317l.058.172.075.453.24.32-.194-.048.022.134v.344l-.086-.43-.023-.069-.063-.017-.774-.688-.086-.602h.086l.172.344.344.258.229-.17zm48.705 32.851l1.29-.258.688.258.602-.258.43.172.344-.258.258-.516.086-1.634.43-1.72.43-1.892.258-1.892.43-1.72.258-1.204.344-1.634-.516-.258-1.376.688-1.118.43-1.72.602h-.86l-.602.086-1.462-.172-1.29.172-.86-.172-.946.086-1.204.172-1.032-.258-.946.258-1.118-.086.086-.602-.086-1.032.258-1.204-.258-.602v-2.838l1.376-.086 1.462.086h2.838l1.204.344h.86l.43.344.946.086.774.344.344-.258-.172-.602.086-1.376v-3.526l.172-2.494-.086-1.376-1.376.172-1.376.516-1.376.172-2.15.086-1.118.258-1.204-.258-1.462.172-.172-.43v-4.214l.086-1.72.688.086h3.268l2.752-.172 2.58.086 1.892.258 2.064.516 1.634.688.086-.774-.516-1.118-.172-2.064-.43-1.462-.344-1.462-.258-1.204-.258-1.806-.43-1.29-.172-1.118-1.29-.086h-3.526l-1.72.086-2.064-.086h-13.502l-1.204-.086-.43-.086-.43.258.258.602.344 1.548.516 1.892.086 1.978v1.29l-.086 1.204v6.106l.086 2.322-.258 1.204.258.86v1.29l-.086 1.032v1.978l.086 2.236-.172 1.204.172.946-.086 1.892.086 1.204v2.408l-.086 1.204.086 2.15-.344 2.15-.516 1.548v.86l-.344.516.344.172.688.086.86-.172 1.376-.086 1.548.172.86-.086.602.086h1.032l1.72-.172 1.462.258.516-.172 1.376.172 1.634-.258 1.548.172 2.064-.086 2.15.172h1.118zm-12.556-32.078l-.344-.086.121-.303.051-.04h.258l-.086.43zm0 1.29l-.344-.344.258-.086.344.086.172.172-.43.172zm-.172 1.548h-.172l-.086-.172-.086-.258.258-.086.086.258v.258zm-2.104 2.866l-.304-.114-.172-.344.43.086v.344l.046.028zm2.19 2.81l-.602-.344-.688-.258-.172-.344.086-.086.258.172.344.172.344-.086h.086l.258.258.172.258-.086.258zm1.72 2.236h-.086l-.086-.43v-.516l-.43-.086v-.258l.602.172.161.041.097.39-.258.687zm-2.752 1.462h-.602v-.172l.258-.172.258.258.086.086zm-.946 2.752h-.086l-.086-.258v-.258l.086-.172.258.086v.344l-.172.258zm-1.032 1.892l-.172-.086.172-.344.172-.172v.344l-.172.258zm.946 2.752l-.172-.172v-.43l.258-.344h.344l-.086.516-.344.43zm1.29-.172v-.43l.43-.086v.43l-.43.086zm.344 1.462h-.172l-.086-.43.086-.344.258.344-.086.43zm1.032 0l-.43.344-.086-.258.344-.258.257.001-.085.171zm-1.032 2.236l-.516-.086.172-.344.344.086v.344zm7.31 2.494l-.086-.086.516-.602.774-.086v.258l-.258.258-.516.086-.43.172zm-5.16.602l-.172-.258v-.43l.258.172.086.344-.172.172zm2.924 1.118l-.086-.086.172-.516v-.43h.258v.602l-.344.43zm41.538 4.73l1.29-.258.688.258.602-.258.43.172.344-.258.258-.516.086-1.634.43-1.72.43-1.892.258-1.892.43-1.72.258-1.204.344-1.634-.516-.258-1.376.688-1.118.43-1.72.602h-.86l-.602.086-1.462-.172-1.29.172-.86-.172-.946.086-1.204.172-1.032-.258-.946.258-1.118-.086.086-.602-.086-1.032.258-1.204-.258-.602v-2.838l1.376-.086 1.462.086h2.838l1.204.344h.86l.43.344.946.086.774.344.344-.258-.172-.602.086-1.376v-3.526l.172-2.494-.086-1.376-1.376.172-1.376.516-1.376.172-2.15.086-1.118.258-1.204-.258-1.462.172-.172-.43v-4.214l.086-1.72.688.086h3.268l2.752-.172 2.58.086 1.892.258 2.064.516 1.634.688.086-.774-.516-1.118-.172-2.064-.43-1.462-.344-1.462-.258-1.204-.258-1.806-.43-1.29-.172-1.118-1.29-.086h-3.526l-1.72.086-2.064-.086h-13.502l-1.204-.086-.43-.086-.43.258.258.602.344 1.548.516 1.892.086 1.978v1.29l-.086 1.204v6.106l.086 2.322-.258 1.204.258.86v1.29l-.086 1.032v1.978l.086 2.236-.172 1.204.172.946-.086 1.892.086 1.204v2.408l-.086 1.204.086 2.15-.344 2.15-.516 1.548v.86l-.344.516.344.172.688.086.86-.172 1.376-.086 1.548.172.86-.086.602.086h1.032l1.72-.172 1.462.258.516-.172 1.376.172 1.634-.258 1.548.172 2.064-.086 2.15.172h1.118zm-12.556-32.078l-.344-.086.121-.303.051-.04h.258l-.086.43zm0 1.29l-.344-.344.258-.086.344.086.172.172-.43.172zm-.172 1.548h-.172l-.086-.172-.086-.258.258-.086.086.258v.258zm-2.104 2.866l-.304-.114-.172-.344.43.086v.344l.046.028zm2.19 2.81l-.602-.344-.688-.258-.172-.344.086-.086.258.172.344.172.344-.086h.086l.258.258.172.258-.086.258zm1.72 2.236h-.086l-.086-.43v-.516l-.43-.086v-.258l.602.172.161.041.097.39-.258.687zm-2.752 1.462h-.602v-.172l.258-.172.258.258.086.086zm-.946 2.752h-.086l-.086-.258v-.258l.086-.172.258.086v.344l-.172.258zm-1.032 1.892l-.172-.086.172-.344.172-.172v.344l-.172.258zm.946 2.752l-.172-.172v-.43l.258-.344h.344l-.086.516-.344.43zm1.29-.172v-.43l.43-.086v.43l-.43.086zm.344 1.462h-.172l-.086-.43.086-.344.258.344-.086.43zm1.032 0l-.43.344-.086-.258.344-.258.257.001-.085.171zm-1.032 2.236l-.516-.086.172-.344.344.086v.344zm7.31 2.494l-.086-.086.516-.602.774-.086v.258l-.258.258-.516.086-.43.172zm-5.16.602l-.172-.258v-.43l.258.172.086.344-.172.172zm2.924 1.118l-.086-.086.172-.516v-.43h.258v.602l-.344.43z" fill="#6B2E3D"/></g></svg>